<?xml version="1.0" encoding="utf-8"?>
<!-- Generator: Adobe Illustrator 24.2.0, SVG Export Plug-In . SVG Version: 6.00 Build 0)  -->
<svg version="1.1" id="Layer_1" xmlns="http://www.w3.org/2000/svg" xmlns:xlink="http://www.w3.org/1999/xlink" x="0px" y="0px"
	 viewBox="0 0 223 59" style="enable-background:new 0 0 223 59;" xml:space="preserve">
<style type="text/css">
	.st0{fill:none;}
	.st1{fill:#FFFFFF;}
</style>
<rect class="st0" width="223" height="59"/>
<path class="st1" d="M35.2,18.5c7.5,0,10.7,6.2,10.7,13.4s-3.2,13.4-10.7,13.4S24.5,39,24.5,31.9S27.7,18.5,35.2,18.5z M44.1,30.5
	c-1.1-8-6.3-12-11.6-11.1s-7.3,5.8-6.3,13.8s6.3,12,11.6,11.1S45.2,38.5,44.1,30.5L44.1,30.5z"/>
<path class="st1" d="M153,18.5c7.5,0,10.7,5,10.7,10.7s-3.2,10.7-10.7,10.7s-10.7-5-10.7-10.7S145.5,18.5,153,18.5z M160.8,28.1
	c-0.9-6.4-5.5-9.6-10.1-8.9s-6.4,4.6-5.5,11.1s5.5,9.6,10.1,8.9S161.7,34.5,160.8,28.1L160.8,28.1z"/>
<path class="st1" d="M6.7,19.9c2.2-0.9,10.3-1.8,9.4,6.7c-0.4,5.4,6.2,5.4,5.4,0c-0.8-4.9-5.1-8-10.7-8c-7.1,0-9.8,6.2-9.8,13.3
	s3.2,13.4,10.7,13.4c5.5,0,10-4.3,10.3-9.8h-0.4C20.5,45.3,7,47.1,3.1,35C0,25.2,4.4,20.7,6.7,19.9z"/>
<path class="st1" d="M79.8,34.1V27c0-6.3-2.7-8-7.1-8c-3.9,0-6,1.6-7,4.9c-0.8-3.7-3.2-4.9-6.8-4.9c-4.1,0-6.3,1.8-7.1,5.4v-5.8
	l-6.2,0.9v0.4c4.5,0,4.5,0,4.5,3.6v10.7c0,9.8,0,9.8-3.6,10.7v0.4h8.9v-0.4c-3.6-0.9-3.6-0.9-3.6-10.7v-4.5c0-7.1,0.9-9.8,7.1-9.8
	c4.5,0,5.3,2.7,5.3,8v6.2c0,9.8,0,9.8-3.6,10.7v0.4h8.9v-0.4C66,43.9,66,43.9,66,34.1V27c0-0.8,0-1.5-0.1-2.3
	c0.6-3.5,2.3-4.9,6.8-4.9s5.3,2.7,5.3,8v6.2c0,9.8,0,9.8-3.6,10.7v0.4h8.9v-0.4C79.8,43.9,79.8,43.9,79.8,34.1z"/>
<path class="st1" d="M112.8,34.1V0.7l-6.3,0.9V2c4.4,0,4.4,0,4.4,3.6v28.5c0,9.8,0,9.8-4.5,10.7v0.4h10.7v-0.4
	C112.8,43.9,112.8,43.9,112.8,34.1z"/>
<path class="st1" d="M87.8,47.1V18.5l-6.2,0.9v0.4c4.5,0,4.5,0,4.5,3.6v23.6c0,9.8,0,9.8-4.5,10.7v0.5h10.7v-0.5
	C87.8,56.9,87.8,56.9,87.8,47.1z"/>
<path class="st1" d="M215.8,13.6v24.1c0,4,0.4,5.3,1.8,5.8s4-0.5,4-2.7h0.4c0.1,2.4-1.8,4.4-4.2,4.5c-0.3,0-0.5,0-0.8,0
	c-2.7-0.4-3.1-2.7-3.1-8V13.6H215.8z"/>
<path class="st1" d="M96.8,18.5c-5.7,0-8,3.9-8.9,7.6v13.8c1.4,3.1,5.8,5.3,9.4,5.3c9.4,0,9.8-11.1,9.8-14.3S106.1,18.5,96.8,18.5z
	 M95.9,44.4c-5.8-0.5-7.6-3.6-8-4.9v-9.4c0-2.7-0.5-4.9,2.7-8c5.5-5.5,13.8,0.5,13.8,12.5C104.3,41.3,101.7,44.8,95.9,44.4z"/>
<path class="st1" d="M135.6,40.4V27.2c0-6.2-3.6-10.5-9.8-8.5c-5.3,1.8-6.7,6.9-2.7,6.5s-0.4-4,3.1-5.8c3.6-1.8,7.6,0,7.6,8v0.6
	c-1.8,6.2-14.3,2.7-16.1,9.8c-1.7,6.9,4.9,8.3,9.4,7.4c3.5-0.7,6.7-4.7,6.7-4.7v4.7l6.2-0.9v-0.5C135.6,43.9,135.6,43.9,135.6,40.4z
	 M120.4,37c1.8-4.1,8-2.7,13.4-6.2v7.1C132.9,45.9,116.8,45,120.4,37z"/>
<path class="st1" d="M184.6,40.4V27.2c0-6.2-3.6-10.5-9.8-8.5c-5.4,1.8-6.7,6.9-2.7,6.5s-0.4-4,3.1-5.8s7.6,0,7.6,8v0.6
	c-1.8,6.2-14.3,2.7-16.1,9.8c-1.7,6.9,4.9,8.3,9.4,7.4c3.5-0.7,6.7-4.7,6.7-4.7v4.7l6.3-0.9v-0.5C184.6,43.9,184.6,43.9,184.6,40.4z
	 M169.4,37c1.8-4.1,8-2.7,13.4-6.2v7.1C181.9,45.9,165.9,45,169.4,37z"/>
<path class="st1" d="M148.5,39c0,0-5.3,0-5.3,3.1s4,2.7,8,1.8s13.8-1.7,13.8,5.8s-13.9,9.4-18.8,8.5c-3.6-0.7-5.8-3.2-4.9-7.6
	c0.4-2.5,2.1-4.7,4.5-5.8h0.4c-3.1,0.4-8,10.3,1.8,11.6c6.7,0.9,16,0.5,15.6-6.7c-0.4-6.7-10.3-5.3-15.6-4.9s-6.7-1.3-5.8-3.6
	s6.3-2.7,6.3-2.7L148.5,39z"/>
<polygon class="st1" points="152.9,18.5 152.9,19 155.6,19.4 158.3,20.3 166.3,20.3 166.3,19 166.3,18.5 "/>
<path class="st1" d="M209.6,35.5c-0.9,9.8-14.3,11.6-18.3-0.4c-0.7-1.9-1-3.8-1.1-5.8h19.4c0-7.1-5.1-10.7-10.7-10.7
	c-7.5,0-9.8,6.2-9.8,13.4s3.2,13.4,10.7,13.4c5.5,0,10-4.3,10.2-9.8H209.6z M195.8,19.5c2.4-0.5,10.7-0.9,11.6,8.9h-17.2
	C190.3,22.5,193.5,19.9,195.8,19.5L195.8,19.5z"/>
<path class="st1" d="M215.8,13.2V8.3h-1.3c0,4-0.7,4.9-4.5,4.9v0.9h11.1v-0.9H215.8z"/>
</svg>
