<?xml version="1.0" encoding="utf-8"?>
<!-- Generator: Adobe Illustrator 24.2.0, SVG Export Plug-In . SVG Version: 6.00 Build 0)  -->
<svg version="1.1" id="Layer_1" xmlns="http://www.w3.org/2000/svg" xmlns:xlink="http://www.w3.org/1999/xlink" x="0px" y="0px"
	 viewBox="0 0 150 100" style="enable-background:new 0 0 150 100;" xml:space="preserve">
<style type="text/css">
	.st0{fill:#FFAB40;}
	.st1{fill:none;stroke:#000000;stroke-width:1.8849;stroke-miterlimit:10;}
	.st2{fill:#424242;}
	.st3{fill:#616161;}
	.st4{fill:#1A1A1A;}
</style>
<g>
	<path class="st0" d="M91.5,34.8c-4.7,0-9,1.9-12.3,4.9c-3.2-3-7.5-4.9-12.3-4.9c-9.8,0-17.9,8.1-17.9,17.9v21.7h11.3V50.8
		c0-3.6,3-6.6,6.6-6.6c3.6,0,6.6,3,6.6,6.6v23.6h11.3V50.8c0-3.6,3-6.6,6.6-6.6c3.6,0,6.6,3,6.6,6.6v23.6h11.3V52.7
		C109.4,42.8,101.4,34.8,91.5,34.8z"/>
	<line class="st1" x1="39.7" y1="35.2" x2="39.7" y2="64.9"/>
	<path class="st2" d="M69.9,29.1c2,0.7,4.9,3.8,5.7,5.7c-3.3,3.3-4.9,5.4-5.7,11.3c-0.3,2-1.7,3.2-3.8,1.9
		c-5.8-3.6-11.3-3.8-15.1-3.8c-1.9-1.9-1-6.9,0-9.4l11.3,1.9L69.9,29.1z"/>
	<polygon class="st3" points="62.3,36.7 35.9,36.7 56.7,23.5 83.1,23.5 	"/>
	<ellipse class="st2" cx="39.7" cy="61.2" rx="2.8" ry="7.5"/>
</g>
<path class="st4" d="M22.8,69.9c-4,0-4,0-7.9,0S3.1,59.7,3.1,54.6S11,39.3,14.9,39.3s4,0,7.9,0S11,54.6,11,54.6S26.8,69.9,22.8,69.9
	z"/>
<rect x="144.9" y="13.8" class="st4" width="3.4" height="72.5"/>
</svg>
