<svg xmlns="http://www.w3.org/2000/svg" viewBox="0 0 297 297"><defs><style>.cls-1{fill:#1a1a1a;}.cls-2{fill:#fff;}</style></defs><g id="Layer_2" data-name="Layer 2"><g id="Layer_1-2" data-name="Layer 1"><path class="cls-1" d="M297,48.65v199.7c0,38.07-10.58,48.65-48.65,48.65H48.65C10.58,297,0,286.42,0,248.35V48.65C0,10.58,10.58,0,48.65,0h199.7C286.42,0,297,10.58,297,48.65Z"/><path class="cls-2" d="M285.66,149.66c0,44.83-14.81,54.11-88.72,55.92-13.82.34-29.7.42-47.94.42-18,0-33.75-.08-47.45-.41-74.34-1.78-89.21-11-89.21-55.93a136.66,136.66,0,0,1,273.32,0Z"/><path d="M39,152a1.78,1.78,0,0,1,1.78,1.79v.05A1.78,1.78,0,0,1,39,155.63H28a1.77,1.77,0,0,1-1.78-1.78v-.07A1.77,1.77,0,0,1,28,152Z"/><path d="M45.09,91.72l9.51,5.49a1.78,1.78,0,0,1,.64,2.45l0,0a1.79,1.79,0,0,1-2.44.67l-9.5-5.49a1.77,1.77,0,0,1-.66-2.43l0-.07A1.78,1.78,0,0,1,45.09,91.72Z"/><path d="M90.06,48.09l5.49,9.51A1.8,1.8,0,0,1,94.88,60l0,0a1.8,1.8,0,0,1-2.45-.64l-5.49-9.51a1.78,1.78,0,0,1,.65-2.43l.06,0A1.79,1.79,0,0,1,90.06,48.09Z"/><path d="M149,31H149a1.78,1.78,0,0,1,1.78,1.78v11A1.79,1.79,0,0,1,149,45.56H149a1.79,1.79,0,0,1-1.79-1.78v-11A1.78,1.78,0,0,1,149,31Z"/><path d="M210.38,47.44l.06,0a1.78,1.78,0,0,1,.65,2.43l-5.49,9.51a1.8,1.8,0,0,1-2.45.64l0,0a1.8,1.8,0,0,1-.67-2.44l5.49-9.51A1.79,1.79,0,0,1,210.38,47.44Z"/><path d="M255.34,92.37l0,.07a1.77,1.77,0,0,1-.66,2.43l-9.5,5.49a1.79,1.79,0,0,1-2.44-.67l0,0a1.78,1.78,0,0,1,.64-2.45l9.51-5.49A1.78,1.78,0,0,1,255.34,92.37Z"/><path d="M271.81,153.78v.07a1.77,1.77,0,0,1-1.78,1.78H259a1.78,1.78,0,0,1-1.78-1.79v-.05A1.78,1.78,0,0,1,259,152h11A1.77,1.77,0,0,1,271.81,153.78Z"/><path d="M47.4,152.75c.89-1.48,2.42-2.21,4.58-2.21s3.7.73,4.58,2.21a12,12,0,0,1,1.33,6.15,12.18,12.18,0,0,1-1.33,6.22q-1.32,2.24-4.58,2.24a4.9,4.9,0,0,1-4.58-2.24,12.18,12.18,0,0,1-1.33-6.22A12,12,0,0,1,47.4,152.75Zm7.71,3a4.15,4.15,0,0,0-1-2.08A2.74,2.74,0,0,0,52,152.9a2.77,2.77,0,0,0-2.16.81,4.23,4.23,0,0,0-1,2.08,17.08,17.08,0,0,0-.24,3.11,19.29,19.29,0,0,0,.22,3.21,4.11,4.11,0,0,0,1,2.09,3.34,3.34,0,0,0,4.34,0,4,4,0,0,0,1-2.09,19.16,19.16,0,0,0,.23-3.21A17.08,17.08,0,0,0,55.11,155.79Z"/><path d="M248.06,153.1a3.37,3.37,0,0,0-4.52.86,9,9,0,0,0-.93,4.56,3.88,3.88,0,0,1,1.72-1.55,5.68,5.68,0,0,1,2.46-.55,5.34,5.34,0,0,1,2.65.65,4.6,4.6,0,0,1,1.8,1.88,6.21,6.21,0,0,1,.64,2.93,6.34,6.34,0,0,1-.62,2.84,4.69,4.69,0,0,1-1.85,2,6.74,6.74,0,0,1-6.63-.32,5.45,5.45,0,0,1-1.87-2.92,17.88,17.88,0,0,1-.53-4.71q0-8.31,5.86-8.32a5,5,0,0,1,3.59,1.23,4.87,4.87,0,0,1,1.53,3H249A2.73,2.73,0,0,0,248.06,153.1Zm-4.19,6.34a3,3,0,0,0-1,2.4,3.43,3.43,0,0,0,.9,2.49,3.37,3.37,0,0,0,2.51.92,3,3,0,0,0,2.27-.89,3.34,3.34,0,0,0,.83-2.37,3.58,3.58,0,0,0-.81-2.46,3,3,0,0,0-2.38-.92A3.45,3.45,0,0,0,243.87,159.44Z"/><path d="M60.9,104.2v-2.37h4.73v16.58H63V104.2Z"/><path d="M235.64,104.06H228v4.52a3.59,3.59,0,0,1,1.42-1.07,4.9,4.9,0,0,1,2-.43,5.41,5.41,0,0,1,3.1.82,4.61,4.61,0,0,1,1.71,2.07,6.9,6.9,0,0,1,.51,2.64,6.67,6.67,0,0,1-.65,3,4.79,4.79,0,0,1-1.93,2.06,6.17,6.17,0,0,1-3.15.75,6.09,6.09,0,0,1-4-1.23,4.93,4.93,0,0,1-1.79-3.25h2.52a2.85,2.85,0,0,0,1.11,1.69,3.59,3.59,0,0,0,2.16.63,3,3,0,0,0,2.43-1,4,4,0,0,0,.8-2.59,3.54,3.54,0,0,0-.82-2.52,3.15,3.15,0,0,0-2.41-.87,3,3,0,0,0-1.87.56,3.11,3.11,0,0,0-1.11,1.51h-2.45v-9.57h10Z"/><path d="M94.34,79.88q2.18-1.89,3.44-3.1a14,14,0,0,0,2.11-2.54,4.88,4.88,0,0,0,.84-2.63,3.24,3.24,0,0,0-.65-2.14,2.5,2.5,0,0,0-2-.78,2.62,2.62,0,0,0-2.08.86,3.56,3.56,0,0,0-.78,2.28h-2.5a5.26,5.26,0,0,1,1.56-4,6,6,0,0,1,7.66,0,4.87,4.87,0,0,1,1.4,3.64,6.51,6.51,0,0,1-.83,3.15,13.21,13.21,0,0,1-2,2.71c-.77.79-1.74,1.71-2.92,2.76l-1,.91h7.21v2.16h-11V81.29Z"/><path d="M192.79,80V78L200.43,67h3.14V77.7h2.12V80h-2.12v3.46H201V80Zm8.35-10.28-5.37,8h5.37Z"/><path d="M144.9,51.63a6,6,0,0,1,3.81-1.19,6.16,6.16,0,0,1,2.75.57,4,4,0,0,1,1.75,1.55,4.13,4.13,0,0,1,.6,2.2,3.89,3.89,0,0,1-.75,2.41,3.66,3.66,0,0,1-1.8,1.35v.09a3.81,3.81,0,0,1,2.09,1.49,4.73,4.73,0,0,1,.75,2.76,4.65,4.65,0,0,1-.61,2.39,4.28,4.28,0,0,1-1.82,1.64,7.12,7.12,0,0,1-6.93-.65,4.71,4.71,0,0,1-1.69-3.63h2.5a2.85,2.85,0,0,0,.93,2,3.3,3.3,0,0,0,2.28.76,2.91,2.91,0,0,0,2.14-.76,2.7,2.7,0,0,0,.75-2,2.49,2.49,0,0,0-1-2.26,5.66,5.66,0,0,0-3.1-.67h-.59V57.54h.61a5.54,5.54,0,0,0,2.81-.62,2,2,0,0,0,1-1.86,2.25,2.25,0,0,0-.71-1.74,3.37,3.37,0,0,0-4,0,2.62,2.62,0,0,0-.84,1.6h-2.52A4.33,4.33,0,0,1,144.9,51.63Z"/></g></g></svg>