<svg xmlns="http://www.w3.org/2000/svg" viewBox="0 0 297 297"><defs><style>.cls-1{fill:none;}.cls-2{fill:#1a1a1a;}</style></defs><g id="Layer_2" data-name="Layer 2"><g id="Layer_1-2" data-name="Layer 1"><path class="cls-1" d="M297,48.65v199.7c0,38.07-10.58,48.65-48.65,48.65H48.65C10.58,297,0,286.42,0,248.35V48.65C0,10.58,10.58,0,48.65,0h199.7C286.42,0,297,10.58,297,48.65Z"/><path class="cls-2" d="M197,204.59c0,.67,0,1.32-.06,2-13.82.35-29.7.43-47.94.43-18,0-33.75-.08-47.45-.42,0-.66-.06-1.32-.06-2,0-20.82,16-37.7,47.76-37.7S197,183.77,197,204.59Z"/></g></g></svg>