<svg xmlns="http://www.w3.org/2000/svg" xmlns:xlink="http://www.w3.org/1999/xlink" viewBox="0 0 369 297"><defs><style>.cls-1{fill:#591fff;}.cls-2{fill:#ff0060;}.cls-3{fill:#171b2d;}.cls-4{fill:#fff;}.cls-5{fill:url(#linear-gradient);}.cls-6{fill:url(#linear-gradient-2);}.cls-7{fill:url(#linear-gradient-3);}.cls-8{fill:#b3b3b3;}.cls-9{fill:url(#linear-gradient-4);}.cls-10{fill:url(#linear-gradient-5);}.cls-11{fill:url(#linear-gradient-6);}.cls-12{fill:#44c9db;}</style><linearGradient id="linear-gradient" x1="305.23" y1="3858.1" x2="305.23" y2="3846.97" gradientTransform="matrix(1, 0, 0, -1, 0, 4064)" gradientUnits="userSpaceOnUse"><stop offset="0" stop-color="#fff"/><stop offset="0.58" stop-color="#e6e6e6"/><stop offset="0.77" stop-color="#eee"/><stop offset="0.99" stop-color="#fff"/></linearGradient><linearGradient id="linear-gradient-2" x1="305.23" y1="3802.42" x2="305.23" y2="3791.29" xlink:href="#linear-gradient"/><linearGradient id="linear-gradient-3" x1="277.56" y1="239.3" x2="283.1" y2="239.3" gradientUnits="userSpaceOnUse"><stop offset="0.11" stop-color="#ccc"/><stop offset="0.4" stop-color="#eee"/><stop offset="0.59" stop-color="#fff"/></linearGradient><linearGradient id="linear-gradient-4" x1="296.01" y1="239.3" x2="301.54" y2="239.3" xlink:href="#linear-gradient-3"/><linearGradient id="linear-gradient-5" x1="314.45" y1="239.3" x2="319.99" y2="239.3" xlink:href="#linear-gradient-3"/><linearGradient id="linear-gradient-6" x1="332.9" y1="239.3" x2="338.43" y2="239.3" xlink:href="#linear-gradient-3"/></defs><g id="Layer_2" data-name="Layer 2"><g id="Layer_1-2" data-name="Layer 1"><path class="cls-1" d="M108.26,37.7c0,.67,0,1.32-.05,2-9.77.35-21,.43-33.88.43-12.74,0-23.86-.08-33.54-.42,0-.66,0-1.32,0-2C40.74.11,52.06,0,74.5,0S108.26.11,108.26,37.7Z"/><path class="cls-2" d="M323.26,37.7c0,.67,0,1.32-.05,2-9.77.35-21,.43-33.88.43-12.74,0-23.86-.08-33.54-.42,0-.66,0-1.32,0-2C255.74.11,267.06,0,289.5,0S323.26.11,323.26,37.7Z"/><path class="cls-3" d="M320.35,35H48.65C10.58,35,0,45.58,0,83.65v164.7C0,286.42,10.58,297,48.65,297h271.7c30,0,42.93-6.57,47.06-28,.23-1.19.44-2.44.62-3.73a126.93,126.93,0,0,0,1-16.93V83.65C369,45.58,358.42,35,320.35,35Z"/><path class="cls-4" d="M369,209.61v3.7H330.7a17.07,17.07,0,0,1,1.34-3.7Z"/><path class="cls-4" d="M368,265.28c-.18,1.29-.39,2.54-.62,3.73h-34.8a24.11,24.11,0,0,1-1.53-3.73Z"/><path class="cls-5" d="M341.2,217H269.26c-2.31,0-2.77-.46-2.77-2.78v-5.57c0-2.32.46-2.78,2.77-2.78H341.2c2.31,0,2.77.46,2.77,2.78v5.57C344,216.57,343.51,217,341.2,217Z"/><path class="cls-6" d="M341.2,272.71H269.26c-2.31,0-2.77-.46-2.77-2.78v-5.57c0-2.32.46-2.78,2.77-2.78H341.2c2.31,0,2.77.46,2.77,2.78v5.57C344,272.25,343.51,272.71,341.2,272.71Z"/><path class="cls-4" d="M272,203.11v2.79h-2.77C271.57,205.9,272,205.43,272,203.11Z"/><path class="cls-4" d="M290.47,203.11v2.79h-2.76C290,205.9,290.47,205.43,290.47,203.11Z"/><path class="cls-4" d="M283.1,203.11v2.79h2.76C283.56,205.9,283.1,205.43,283.1,203.11Z"/><path class="cls-4" d="M308.92,203.11v2.79h-2.77C308.46,205.9,308.92,205.43,308.92,203.11Z"/><path class="cls-4" d="M301.54,203.11v2.79h2.77C302,205.9,301.54,205.43,301.54,203.11Z"/><path class="cls-4" d="M327.37,203.11v2.79H324.6C326.91,205.9,327.37,205.43,327.37,203.11Z"/><path class="cls-4" d="M320,203.11v2.79h2.76C320.45,205.9,320,205.43,320,203.11Z"/><path class="cls-4" d="M327.37,219.82V217H324.6C326.91,217,327.37,217.5,327.37,219.82Z"/><path class="cls-4" d="M320,219.82V217h2.76C320.45,217,320,217.5,320,219.82Z"/><path class="cls-4" d="M308.92,219.82V217h-2.77C308.46,217,308.92,217.5,308.92,219.82Z"/><path class="cls-4" d="M301.54,219.82V217h2.77C302,217,301.54,217.5,301.54,219.82Z"/><path class="cls-4" d="M290.47,219.82V217h-2.76C290,217,290.47,217.5,290.47,219.82Z"/><path class="cls-4" d="M283.1,219.82V217h2.76C283.56,217,283.1,217.5,283.1,219.82Z"/><path class="cls-4" d="M290.47,258.79v2.79h-2.76C290,261.58,290.47,261.11,290.47,258.79Z"/><path class="cls-4" d="M283.1,258.79v2.79h2.76C283.56,261.58,283.1,261.11,283.1,258.79Z"/><path class="cls-4" d="M290.47,275.49v-2.78h-2.76C290,272.71,290.47,273.17,290.47,275.49Z"/><path class="cls-4" d="M283.1,275.49v-2.78h2.76C283.56,272.71,283.1,273.17,283.1,275.49Z"/><path class="cls-4" d="M308.92,258.79v2.79h-2.77C308.46,261.58,308.92,261.11,308.92,258.79Z"/><path class="cls-4" d="M301.54,258.79v2.79h2.77C302,261.58,301.54,261.11,301.54,258.79Z"/><path class="cls-4" d="M308.92,275.49v-2.78h-2.77C308.46,272.71,308.92,273.17,308.92,275.49Z"/><path class="cls-4" d="M301.54,275.49v-2.78h2.77C302,272.71,301.54,273.17,301.54,275.49Z"/><path class="cls-4" d="M327.37,258.79v2.79H324.6C326.91,261.58,327.37,261.11,327.37,258.79Z"/><path class="cls-4" d="M320,258.79v2.79h2.76C320.45,261.58,320,261.11,320,258.79Z"/><path class="cls-4" d="M327.37,275.49v-2.78H324.6C326.91,272.71,327.37,273.17,327.37,275.49Z"/><path class="cls-4" d="M320,275.49v-2.78h2.76C320.45,272.71,320,273.17,320,275.49Z"/><path class="cls-4" d="M272,219.82V217h-2.77C271.57,217,272,217.5,272,219.82Z"/><path class="cls-4" d="M338.43,258.79v2.79h2.77C338.9,261.58,338.43,261.11,338.43,258.79Z"/><path class="cls-4" d="M338.43,275.49v-2.78h2.77C338.9,272.71,338.43,273.17,338.43,275.49Z"/><path class="cls-4" d="M338.43,203.11v2.79h2.77C338.9,205.9,338.43,205.43,338.43,203.11Z"/><path class="cls-4" d="M338.43,219.82V217h2.77C338.9,217,338.43,217.5,338.43,219.82Z"/><path class="cls-4" d="M272,258.79v2.79h-2.77C271.57,261.58,272,261.11,272,258.79Z"/><path class="cls-4" d="M272,275.49v-2.78h-2.77C271.57,272.71,272,273.17,272,275.49Z"/><path class="cls-4" d="M283.1,203.11v72.38c0,2.32-.47,2.79-2.77,2.79h-5.54c-2.3,0-2.76-.47-2.76-2.79V203.11c0-2.32.46-2.78,2.76-2.78h5.54C282.63,200.33,283.1,200.79,283.1,203.11Z"/><path class="cls-7" d="M283.1,203.11v72.38c0,2.32-.47,2.79-2.77,2.79h-2.77V200.33h2.77C282.63,200.33,283.1,200.79,283.1,203.11Z"/><rect class="cls-8" x="277.1" y="200.33" width="0.92" height="77.95"/><path class="cls-4" d="M301.54,203.11v72.38c0,2.32-.46,2.79-2.77,2.79h-5.53c-2.31,0-2.77-.47-2.77-2.79V203.11c0-2.32.46-2.78,2.77-2.78h5.53C301.08,200.33,301.54,200.79,301.54,203.11Z"/><path class="cls-9" d="M301.54,203.11v72.38c0,2.32-.46,2.79-2.77,2.79H296V200.33h2.76C301.08,200.33,301.54,200.79,301.54,203.11Z"/><rect class="cls-8" x="295.55" y="200.33" width="0.92" height="77.95"/><path class="cls-4" d="M320,203.11v72.38c0,2.32-.46,2.79-2.77,2.79h-5.53c-2.31,0-2.77-.47-2.77-2.79V203.11c0-2.32.46-2.78,2.77-2.78h5.53C319.53,200.33,320,200.79,320,203.11Z"/><path class="cls-10" d="M320,203.11v72.38c0,2.32-.46,2.79-2.77,2.79h-2.77V200.33h2.77C319.53,200.33,320,200.79,320,203.11Z"/><rect class="cls-8" x="313.99" y="200.33" width="0.92" height="77.95"/><path class="cls-4" d="M338.43,203.11v72.38c0,2.32-.46,2.79-2.76,2.79h-5.54c-2.3,0-2.76-.47-2.76-2.79V203.11c0-2.32.46-2.78,2.76-2.78h5.54C338,200.33,338.43,200.79,338.43,203.11Z"/><path class="cls-11" d="M338.43,203.11v72.38c0,2.32-.46,2.79-2.76,2.79H332.9V200.33h2.77C338,200.33,338.43,200.79,338.43,203.11Z"/><rect class="cls-8" x="332.44" y="200.33" width="0.92" height="77.95"/><path class="cls-12" d="M276.65,200.33s-3.55,26.38,0,29.13,7.08,2.76,7.08-.79,14.18,5.49,14.18-1,17.71,7.82,17.71,0,17.72,5.81,14.18-3.9,0-23.45,0-23.45S297.46,199,291.26,199A115,115,0,0,0,276.65,200.33Z"/><path class="cls-4" d="M51.75,226.8l6.45,18.28h.25L64.9,226.8h2.76l-8,21.71H57L49,226.8Z"/><path class="cls-4" d="M70.08,248.51H67.32l8-21.71H78l8,21.71H83.22l-6.49-18.28h-.17Zm1-8.48H82.2v2.33H71.09Z"/><path class="cls-4" d="M101.25,232.23a3.37,3.37,0,0,0-1.55-2.51,6,6,0,0,0-3.33-.89,6.33,6.33,0,0,0-2.52.47,4,4,0,0,0-1.67,1.28,3.06,3.06,0,0,0-.6,1.86,2.61,2.61,0,0,0,.42,1.49,3.63,3.63,0,0,0,1.07,1,7.28,7.28,0,0,0,1.38.66,11.73,11.73,0,0,0,1.33.42l2.2.6a17,17,0,0,1,1.89.61,8.86,8.86,0,0,1,2,1.07,5.43,5.43,0,0,1,1.58,1.72,4.93,4.93,0,0,1,.63,2.58,5.77,5.77,0,0,1-.92,3.18,6.37,6.37,0,0,1-2.67,2.26,11.28,11.28,0,0,1-8.29.08,6.28,6.28,0,0,1-2.67-2.1,5.9,5.9,0,0,1-1.1-3.13h2.71a3.31,3.31,0,0,0,.84,2,4.26,4.26,0,0,0,1.84,1.19,7.29,7.29,0,0,0,2.41.39A7,7,0,0,0,99,246a4.48,4.48,0,0,0,1.89-1.37,3.23,3.23,0,0,0,.7-2.08,2.57,2.57,0,0,0-.6-1.76,4.38,4.38,0,0,0-1.59-1.1,17.14,17.14,0,0,0-2.13-.74l-2.67-.76a10,10,0,0,1-4-2.09A4.6,4.6,0,0,1,89,232.56a5.27,5.27,0,0,1,1-3.18,6.59,6.59,0,0,1,2.68-2.12,9.67,9.67,0,0,1,7.49,0,6.56,6.56,0,0,1,2.59,2,5,5,0,0,1,1,2.94Z"/><path class="cls-4" d="M120.29,232.23a3.34,3.34,0,0,0-1.55-2.51,6,6,0,0,0-3.33-.89,6.33,6.33,0,0,0-2.52.47,4,4,0,0,0-1.67,1.28,3.06,3.06,0,0,0-.6,1.86,2.61,2.61,0,0,0,.42,1.49,3.76,3.76,0,0,0,1.07,1,7.28,7.28,0,0,0,1.38.66,12.4,12.4,0,0,0,1.33.42l2.2.6a17.76,17.76,0,0,1,1.9.61,9,9,0,0,1,2,1.07A5.43,5.43,0,0,1,122.5,240a4.93,4.93,0,0,1,.63,2.58,5.77,5.77,0,0,1-.92,3.18,6.37,6.37,0,0,1-2.67,2.26,11.28,11.28,0,0,1-8.29.08,6.4,6.4,0,0,1-2.67-2.1,6,6,0,0,1-1.1-3.13h2.72a3.31,3.31,0,0,0,.83,2,4.32,4.32,0,0,0,1.84,1.19,7.29,7.29,0,0,0,2.41.39A7,7,0,0,0,118,246a4.51,4.51,0,0,0,1.9-1.37,3.29,3.29,0,0,0,.7-2.08,2.58,2.58,0,0,0-.61-1.76,4.38,4.38,0,0,0-1.59-1.1,17.14,17.14,0,0,0-2.13-.74l-2.67-.76a10,10,0,0,1-4-2.09,4.6,4.6,0,0,1-1.49-3.56,5.28,5.28,0,0,1,1-3.18,6.49,6.49,0,0,1,2.67-2.12,9,9,0,0,1,3.76-.76,8.84,8.84,0,0,1,3.73.75,6.56,6.56,0,0,1,2.59,2,5,5,0,0,1,1,2.94Z"/><path class="cls-4" d="M33.9,248v-6.5l2.84-3.05,7.55,10.09h3.18l-9.12-11.92,9.12-9.79H44l-9.76,10.77H34V226.8H31.4v45.6h2.41v-2.51h.3c.18.3.45.67.79,1.12a4.43,4.43,0,0,0,1.45,1.2,5.17,5.17,0,0,0,2.51.53,6.36,6.36,0,0,0,3.6-1,6.9,6.9,0,0,0,2.43-2.92,11.79,11.79,0,0,0,0-8.94,6.71,6.71,0,0,0-2.45-2.91,6.4,6.4,0,0,0-3.62-1,5.14,5.14,0,0,0-2.52.52,4.51,4.51,0,0,0-1.42,1.19c-.33.44-.59.81-.77,1.09H33.9V248Zm.49,13.09A4.57,4.57,0,0,1,36,258.92a4.12,4.12,0,0,1,2.56-.77,4.24,4.24,0,0,1,2.65.81,4.89,4.89,0,0,1,1.58,2.19,8.69,8.69,0,0,1,.52,3.1,9.07,9.07,0,0,1-.53,3.16,5.18,5.18,0,0,1-1.59,2.25,4.16,4.16,0,0,1-2.63.83A4,4,0,0,1,36,269.7a4.84,4.84,0,0,1-1.58-2.2,9,9,0,0,1-.54-3.25A8.67,8.67,0,0,1,34.39,261.06Z"/><path class="cls-4" d="M54.38,272.78a6.61,6.61,0,0,1-2.81-.59,4.63,4.63,0,0,1-2.74-4.42,4.17,4.17,0,0,1,.55-2.27,4,4,0,0,1,1.47-1.37,7.87,7.87,0,0,1,2-.75c.75-.17,1.5-.3,2.26-.4,1-.13,1.79-.22,2.41-.29a3.85,3.85,0,0,0,1.36-.34.92.92,0,0,0,.43-.85v-.09a3.35,3.35,0,0,0-.86-2.44,3.47,3.47,0,0,0-2.58-.87,4.41,4.41,0,0,0-4.24,2.46l-2.38-.84A5.77,5.77,0,0,1,51,257.4a6.4,6.4,0,0,1,2.33-1.17,9.87,9.87,0,0,1,2.5-.33,10.51,10.51,0,0,1,1.8.18,6.15,6.15,0,0,1,2,.76,4.39,4.39,0,0,1,1.59,1.73,6.36,6.36,0,0,1,.64,3.1V272.4h-2.5v-2.21h-.13a4.35,4.35,0,0,1-.85,1.14,4.9,4.9,0,0,1-1.58,1A6,6,0,0,1,54.38,272.78Zm.38-2.25a5,5,0,0,0,2.51-.58,4,4,0,0,0,1.55-1.51,3.85,3.85,0,0,0,.53-1.94v-2.29a1.53,1.53,0,0,1-.7.35,10.51,10.51,0,0,1-1.23.26c-.46.08-.91.14-1.35.19l-1,.13a10.8,10.8,0,0,0-1.82.41,3.28,3.28,0,0,0-1.36.84,2.14,2.14,0,0,0-.51,1.51,2.22,2.22,0,0,0,1,2A4.29,4.29,0,0,0,54.76,270.53Z"/><path class="cls-4" d="M73.51,256.11v2.12H65.07v-2.12Zm-6-3.9H70v15.52a3.15,3.15,0,0,0,.32,1.59,1.5,1.5,0,0,0,.8.7,3.3,3.3,0,0,0,1,.17,3.15,3.15,0,0,0,.67-.05l.43-.08.51,2.25a5.07,5.07,0,0,1-.71.2,5.38,5.38,0,0,1-1.16.1,4.87,4.87,0,0,1-2.07-.46,3.87,3.87,0,0,1-2.34-3.74Z"/><path class="cls-4" d="M84.37,256.11v2.12H75.93v-2.12Zm-6-3.9h2.5v15.52a3.17,3.17,0,0,0,.31,1.59,1.56,1.56,0,0,0,.81.7,3.7,3.7,0,0,0,1.72.12l.43-.08.5,2.25a4.7,4.7,0,0,1-.71.2,5.28,5.28,0,0,1-1.15.1,4.87,4.87,0,0,1-2.07-.46,3.87,3.87,0,0,1-2.34-3.74Z"/><path class="cls-4" d="M94.8,272.74a7.54,7.54,0,0,1-4-1.05,6.82,6.82,0,0,1-2.62-2.92,9.82,9.82,0,0,1-.92-4.39,10,10,0,0,1,.92-4.42,7.12,7.12,0,0,1,2.56-3,6.9,6.9,0,0,1,3.86-1.08,7.82,7.82,0,0,1,2.51.42,6.27,6.27,0,0,1,2.26,1.38,6.53,6.53,0,0,1,1.62,2.5,10.75,10.75,0,0,1,.6,3.84v1.06H89v-2.16H99a5.3,5.3,0,0,0-.55-2.46,4.25,4.25,0,0,0-1.54-1.71,4.44,4.44,0,0,0-2.36-.62,4.53,4.53,0,0,0-2.59.73,4.92,4.92,0,0,0-1.67,1.92,5.69,5.69,0,0,0-.58,2.52v1.44a7.07,7.07,0,0,0,.64,3.13,4.62,4.62,0,0,0,1.79,1.94,5.22,5.22,0,0,0,2.66.66,5.6,5.6,0,0,0,1.79-.28,3.67,3.67,0,0,0,2.28-2.27l2.42.68a5.29,5.29,0,0,1-1.28,2.16,6.14,6.14,0,0,1-2.23,1.44A8.24,8.24,0,0,1,94.8,272.74Z"/><path class="cls-4" d="M105.36,272.4V256.11h2.42v2.46H108a3.83,3.83,0,0,1,1.61-2,4.75,4.75,0,0,1,2.63-.75h.69a4.78,4.78,0,0,1,.62,0v2.54l-.57-.1a7.19,7.19,0,0,0-1-.07,4.45,4.45,0,0,0-2.12.5,3.8,3.8,0,0,0-1.46,1.35,3.67,3.67,0,0,0-.54,2V272.4Z"/><path class="cls-4" d="M117.74,253.4a1.77,1.77,0,0,1-1.25-.5,1.62,1.62,0,0,1,0-2.4,1.83,1.83,0,0,1,2.51,0,1.62,1.62,0,0,1,0,2.4A1.78,1.78,0,0,1,117.74,253.4Zm-1.27,19V256.11H119V272.4Z"/><path class="cls-4" d="M130.38,272.74a7.54,7.54,0,0,1-4-1.05,6.82,6.82,0,0,1-2.62-2.92,10,10,0,0,1-.92-4.39,10.15,10.15,0,0,1,.92-4.42,7.12,7.12,0,0,1,2.56-3,6.9,6.9,0,0,1,3.86-1.08,7.78,7.78,0,0,1,2.51.42,6.27,6.27,0,0,1,2.26,1.38,6.53,6.53,0,0,1,1.62,2.5,10.74,10.74,0,0,1,.61,3.84v1.06H124.57v-2.16h10a5.43,5.43,0,0,0-.54-2.46,4.34,4.34,0,0,0-1.55-1.71,4.87,4.87,0,0,0-4.94.11,4.85,4.85,0,0,0-1.67,1.92,5.56,5.56,0,0,0-.59,2.52v1.44a7.07,7.07,0,0,0,.64,3.13,4.62,4.62,0,0,0,1.79,1.94,5.22,5.22,0,0,0,2.66.66,5.56,5.56,0,0,0,1.79-.28,3.67,3.67,0,0,0,2.28-2.27l2.42.68a5.29,5.29,0,0,1-1.28,2.16,6.05,6.05,0,0,1-2.23,1.44A8.2,8.2,0,0,1,130.38,272.74Z"/><path class="cls-4" d="M152.48,259.76l-2.25.63a4.29,4.29,0,0,0-.62-1.09,3.12,3.12,0,0,0-1.11-.89,4,4,0,0,0-1.79-.35,4.27,4.27,0,0,0-2.49.69,2,2,0,0,0-1,1.73,1.79,1.79,0,0,0,.68,1.47,5.66,5.66,0,0,0,2.12.9l2.42.6a6.57,6.57,0,0,1,3.25,1.62,3.78,3.78,0,0,1,1.08,2.79,4.17,4.17,0,0,1-.8,2.5,5.34,5.34,0,0,1-2.24,1.74,8.17,8.17,0,0,1-3.33.64,7.24,7.24,0,0,1-4.12-1.09,4.78,4.78,0,0,1-2.07-3.16l2.38-.59a3.23,3.23,0,0,0,1.28,2,4.31,4.31,0,0,0,2.49.66,4.61,4.61,0,0,0,2.78-.75,2.17,2.17,0,0,0,1-1.79,1.89,1.89,0,0,0-.6-1.43,3.73,3.73,0,0,0-1.82-.86l-2.71-.64a6.33,6.33,0,0,1-3.28-1.65,3.92,3.92,0,0,1-1.05-2.8,4,4,0,0,1,.78-2.44,5.27,5.27,0,0,1,2.13-1.67,7.51,7.51,0,0,1,3.07-.6,6.09,6.09,0,0,1,3.8,1.06A5.77,5.77,0,0,1,152.48,259.76Z"/></g></g></svg>