<?xml version="1.0" encoding="utf-8"?>
<!-- Generator: Adobe Illustrator 24.2.0, SVG Export Plug-In . SVG Version: 6.00 Build 0)  -->
<svg version="1.1" id="Layer_1" xmlns="http://www.w3.org/2000/svg" xmlns:xlink="http://www.w3.org/1999/xlink" x="0px" y="0px"
	 viewBox="0 0 369 297" style="enable-background:new 0 0 369 297;" xml:space="preserve">
<style type="text/css">
	.st0{fill:#591FFF;}
	.st1{fill:#FF0060;}
	.st2{fill:url(#SVGID_1_);}
	.st3{fill:#808080;}
</style>
<g>
	<path class="st0" d="M108.3,37.7c0,0.7,0,1.3-0.1,2c-9.8,0.3-21,0.4-33.9,0.4c-12.7,0-23.9-0.1-33.5-0.4c0-0.7,0-1.3,0-2
		C40.7,0.1,52.1,0,74.5,0S108.3,0.1,108.3,37.7z"/>
	<path class="st1" d="M323.3,37.7c0,0.7,0,1.3,0,2c-9.8,0.3-21,0.4-33.9,0.4c-12.7,0-23.9-0.1-33.5-0.4c0-0.7,0-1.3,0-2
		C255.7,0.1,267.1,0,289.5,0S323.3,0.1,323.3,37.7z"/>
	
		<radialGradient id="SVGID_1_" cx="184.517" cy="132" r="160.0117" gradientTransform="matrix(1 0 0 -1 0 298)" gradientUnits="userSpaceOnUse">
		<stop  offset="0" style="stop-color:#FFFFFF"/>
		<stop  offset="0.37" style="stop-color:#FCFCFC"/>
		<stop  offset="0.6" style="stop-color:#F4F4F4"/>
		<stop  offset="0.8" style="stop-color:#E5E5E5"/>
		<stop  offset="0.97" style="stop-color:#D0D0D0"/>
		<stop  offset="1" style="stop-color:#CCCCCC"/>
	</radialGradient>
	<path class="st2" d="M320.4,35H48.7C10.6,35,0,45.6,0,83.7v164.7C0,286.4,10.6,297,48.7,297h271.7c30,0,42.9-6.6,47.1-28
		c0.2-1.2,0.4-2.4,0.6-3.7c0.7-5.6,1-11.3,1-16.9V83.7C369,45.6,358.4,35,320.4,35z"/>
	<g>
		<polygon class="st3" points="195.7,222 211.7,222 211.7,174 250.1,174 250.1,158 211.7,158 211.7,110 195.7,110 195.7,158 
			195.7,158 195.7,174 195.7,174 		"/>
		<polygon class="st3" points="118.9,174 157.3,174 157.3,206 173.3,206 173.3,174 173.3,174 173.3,158 173.3,158 173.3,126 
			157.3,126 157.3,158 118.9,158 		"/>
	</g>
</g>
</svg>
