<svg xmlns="http://www.w3.org/2000/svg" viewBox="0 0 369 297"><defs><style>.cls-1{fill:#591fff;}.cls-2{fill:#ff0060;}.cls-3{fill:#ccbdcc;}.cls-4{fill:#fff;}.cls-5{fill:#ff6355;}.cls-6{fill:#4a7dff;}</style></defs><g id="Layer_2" data-name="Layer 2"><g id="Layer_1-2" data-name="Layer 1"><path class="cls-1" d="M108.26,37.7c0,.67,0,1.32-.05,2-9.77.35-21,.43-33.88.43-12.74,0-23.86-.08-33.54-.42,0-.66,0-1.32,0-2C40.74.11,52.06,0,74.5,0S108.26.11,108.26,37.7Z"/><path class="cls-2" d="M289.5,0c-22.44,0-33.76.11-33.76,37.7,0,19.29,20.13,10.14,21,28.5-.24,12.06-1.65,18.75-4.51,21.47-4.39,4.19-18,4.67-27.86,4.67H209.43v25h34.91c42.15,0,56.19-11.82,57.27-49.91h.07c0-20,21.57-10,21.57-29.69C323.25.11,312,0,289.5,0Z"/><path class="cls-3" d="M369,195.92v52.41a127.25,127.25,0,0,1-1,16.95c-.18,1.27-.4,2.54-.63,3.72-4.11,21.44-17,28-47,28H48.64C10.57,297,0,286.42,0,248.33V83.61C0,45.52,10.57,34.94,48.64,34.94h132.1c38.07,0,48.64,10.58,48.64,48.67v15c0,38.09,10.57,48.67,48.64,48.67h42.34C358.43,147.25,369,157.83,369,195.92Z"/><path d="M157.07,123.14c0,22.09-7.3,26.68-43.68,27.56v-.48c0-10.16-7.68-18.37-22.91-18.57V86.23a1,1,0,0,0-1.94,0v45.45c-14.74.42-22.2,8.56-22.2,18.54a2.74,2.74,0,0,0,0,.5c-36.6-.9-43.93-5.44-43.93-27.58a67.32,67.32,0,1,1,134.63,0Z"/><path class="cls-4" d="M35.55,124.28a.88.88,0,0,1,.88.89h0a.88.88,0,0,1-.88.89H30.14a.88.88,0,0,1-.88-.88v0a.88.88,0,0,1,.88-.88Z"/><rect class="cls-4" x="39.57" y="93.11" width="1.79" height="7.16" rx="0.88" transform="translate(-63.5 83.36) rotate(-59.98)"/><path class="cls-4" d="M60.72,73.05l2.71,4.69a.88.88,0,0,1-.33,1.2h0a.89.89,0,0,1-1.21-.32l-2.7-4.69a.87.87,0,0,1,.32-1.19l0,0A.87.87,0,0,1,60.72,73.05Z"/><path class="cls-4" d="M89.74,64.62h0a.87.87,0,0,1,.87.88v5.42a.87.87,0,0,1-.88.88h0a.88.88,0,0,1-.88-.88V65.5A.87.87,0,0,1,89.74,64.62Z"/><path class="cls-4" d="M120,72.73l0,0a.87.87,0,0,1,.32,1.19l-2.7,4.69a.88.88,0,0,1-1.21.32h0a.87.87,0,0,1-.33-1.2l2.7-4.69A.87.87,0,0,1,120,72.73Z"/><path class="cls-4" d="M142.14,94.88l0,0a.88.88,0,0,1-.32,1.2l-4.69,2.7a.87.87,0,0,1-1.2-.33h0a.88.88,0,0,1,.32-1.21l4.68-2.71A.88.88,0,0,1,142.14,94.88Z"/><path class="cls-4" d="M150.25,125.16v0a.88.88,0,0,1-.87.88H144a.88.88,0,0,1-.88-.89h0a.88.88,0,0,1,.88-.89h5.42A.88.88,0,0,1,150.25,125.16Z"/><path class="cls-5" d="M90.48,86.23v45.42c-.2,0-.4,0-.6,0a11.92,11.92,0,0,0-1.34.05V86.23a1,1,0,0,1,1.94,0Z"/><path class="cls-3" d="M113.39,150.7a4.26,4.26,0,0,1,0,.5c-6.81.17-14.64.19-23.61.19s-16.63,0-23.37-.19c0-.15,0-.33,0-.48h0c6.74.15,14.49.2,23.37.2s16.8,0,23.61-.22Z"/><path class="cls-6" d="M349,210.32v38.35a71.86,71.86,0,0,1-.57,9.85c-.1.78-.23,1.5-.35,2.18-2.4,12.47-9.92,16.3-27.34,16.3H48.26C26.16,277,20,270.85,20,248.67V210.32C20,188.15,26.16,182,48.26,182H320.74C342.84,182,349,188.15,349,210.32Z"/></g></g></svg>