<svg xmlns="http://www.w3.org/2000/svg" xmlns:xlink="http://www.w3.org/1999/xlink" viewBox="0 0 226 148"><defs><style>.cls-1{fill:#1a1a1a;}.cls-2{fill:url(#linear-gradient);}</style><linearGradient id="linear-gradient" x1="-515" y1="74" x2="-400" y2="74" gradientTransform="matrix(-1, 0, 0, 1, -289, 0)" gradientUnits="userSpaceOnUse"><stop offset="0" stop-color="#333"/><stop offset="0.46" stop-color="#232323"/><stop offset="0.88" stop-color="#1a1a1a"/></linearGradient></defs><g id="Layer_2" data-name="Layer 2"><g id="Layer_1-2" data-name="Layer 1"><path class="cls-1" d="M226,99.35V48.65C226,10.58,215.42,0,177.35,0H48.65A126.18,126.18,0,0,0,31.5,1a62,62,0,0,0-7,1.38c-13.18,3.43-20,11-22.82,25.12-.44,2.17-.78,4.5-1,7A137.82,137.82,0,0,0,0,48.65v50.7A132.8,132.8,0,0,0,.75,114.5q.44,3.75,1.14,7c3,13.49,9.74,20.77,22.61,24.12a62,62,0,0,0,7,1.38,126.18,126.18,0,0,0,17.15,1h128.7C215.42,148,226,137.42,226,99.35Z"/><path class="cls-2" d="M111,34.5v-7h40V0h7V27.5h36.5V1a62,62,0,0,1,7,1.38V27.5h22.82c.44,2.17.78,4.5,1,7H201.5V71H226v7H201.5v36.5h23.75q-.44,3.75-1.14,7H201.5v24.12a62,62,0,0,1-7,1.38V121.5H158V148h-7V121.5H111v-7h40V78H111V71h40V34.5Zm47,80h36.5V78H158ZM158,71h36.5V34.5H158Z"/></g></g></svg>