<svg xmlns="http://www.w3.org/2000/svg" viewBox="0 0 226 148"><defs><style>.cls-1{fill:#ffb45f;}</style></defs><g id="Layer_2" data-name="Layer 2"><g id="Layer_1-2" data-name="Layer 1"><path class="cls-1" d="M226,99.35V48.65C226,10.58,215.42,0,177.35,0H48.65A126.18,126.18,0,0,0,31.5,1a62,62,0,0,0-7,1.38c-13.18,3.43-20,11-22.82,25.12-.44,2.17-.78,4.5-1,7A137.82,137.82,0,0,0,0,48.65v50.7A132.8,132.8,0,0,0,.75,114.5q.44,3.75,1.14,7c3,13.49,9.74,20.77,22.61,24.12a62,62,0,0,0,7,1.38,126.18,126.18,0,0,0,17.15,1h128.7C215.42,148,226,137.42,226,99.35Z"/></g></g></svg>