<svg xmlns="http://www.w3.org/2000/svg" xmlns:xlink="http://www.w3.org/1999/xlink" viewBox="0 0 477 273"><defs><style>.cls-1{fill:#1a1a1a;}.cls-2{fill:url(#linear-gradient);}</style><linearGradient id="linear-gradient" x1="-666" y1="136.5" x2="-437.2" y2="136.5" gradientTransform="matrix(-1, 0, 0, 1, -189, 0)" gradientUnits="userSpaceOnUse"><stop offset="0" stop-color="#333"/><stop offset="0.46" stop-color="#232323"/><stop offset="0.88" stop-color="#1a1a1a"/></linearGradient></defs><g id="Layer_2" data-name="Layer 2"><g id="Layer_1-2" data-name="Layer 1"><path class="cls-1" d="M477,48.65v175.7a105.53,105.53,0,0,1-1.84,21.88,41,41,0,0,1-3,9.2c-4.29,9.08-11.83,14-24.06,16.15a86.81,86.81,0,0,1-9.2,1.09c-3.26.23-6.77.33-10.55.33H48.65C10.58,273,0,262.42,0,224.35V48.65C0,10.58,10.58,0,48.65,0h379.7c3.78,0,7.29.1,10.55.33a86.81,86.81,0,0,1,9.2,1.09c12.23,2.17,19.77,7.07,24.06,16.15a41,41,0,0,1,3,9.2A105.53,105.53,0,0,1,477,48.65Z"/><path class="cls-2" d="M477,63.52V50.75H413.31V0H400.54V50.75H334V0H321.18V50.75h-73V63.52h73v66.59h-73v12.78h73v66.59h-73v12.77h73V273H334V222.25h66.58V273h12.77V222.25H477V209.48H413.31V142.89H477V130.11H413.31V63.52Zm-76.46,146H334V142.89h66.58Zm0-79.37H334V63.52h66.58Z"/></g></g></svg>