<svg xmlns="http://www.w3.org/2000/svg" viewBox="0 0 72 72"><defs><style>.cls-1{fill:#fff;}.cls-2{fill:#591fff;}.cls-3{fill:#ff0060;}.cls-4{fill:#1a1a1a;}.cls-5{fill:#00e260;}</style></defs><g id="Layer_2" data-name="Layer 2"><g id="Layer_1-2" data-name="Layer 1"><path class="cls-1" d="M45.47,0H26.53C5.76,0,0,5.76,0,26.53V45.47C0,66.24,5.76,72,26.53,72H45.47C66.24,72,72,66.24,72,45.47V26.53C72,5.76,66.24,0,45.47,0Z"/><path class="cls-2" d="M24,19.36c0,.1,0,.21,0,.32-1.58.05-3.39.06-5.48.06s-3.85,0-5.42-.06v-.32c0-6.08,1.83-6.1,5.45-6.1S24,13.28,24,19.36Z"/><path class="cls-3" d="M58.9,19.36v.32c-1.58.05-3.4.06-5.48.06s-3.85,0-5.42-.06c0-.11,0-.22,0-.32,0-6.08,1.83-6.1,5.46-6.1S58.9,13.28,58.9,19.36Z"/><path class="cls-4" d="M58,18.92H14.05c-6.15,0-7.86,1.71-7.86,7.86V46.87c0,6.15,1.71,7.87,7.86,7.87H58c4.85,0,6.94-1.07,7.6-4.53a5.18,5.18,0,0,0,.1-.61,18.49,18.49,0,0,0,.16-2.73V26.78C65.81,20.63,64.1,18.92,58,18.92Z"/><path class="cls-5" d="M17,24.25H13.19c-2.87,0-3.67.8-3.67,3.66V45.74c0,2.87.8,3.66,3.67,3.66H17c2.87,0,3.67-.79,3.67-3.66V27.91C20.67,25.05,19.87,24.25,17,24.25Z"/><path class="cls-5" d="M30.94,24.25H27.12c-2.86,0-3.66.8-3.66,3.66V45.74c0,2.87.8,3.66,3.66,3.66h3.82c2.87,0,3.66-.79,3.66-3.66V27.91C34.6,25.05,33.81,24.25,30.94,24.25Z"/><path class="cls-5" d="M44.88,24.25H41.06c-2.87,0-3.66.8-3.66,3.66V45.74c0,2.87.79,3.66,3.66,3.66h3.82c2.86,0,3.66-.79,3.66-3.66V27.91C48.54,25.05,47.74,24.25,44.88,24.25Z"/><path class="cls-5" d="M58.81,24.25H55c-2.87,0-3.67.8-3.67,3.66V45.74c0,2.87.8,3.66,3.67,3.66h3.81c2.87,0,3.67-.79,3.67-3.66V27.91C62.48,25.05,61.68,24.25,58.81,24.25Z"/></g></g></svg>