<svg xmlns="http://www.w3.org/2000/svg" viewBox="0 0 64 64"><defs><style>.cls-1{fill:none;}.cls-2{fill:#fff;}.cls-3{fill:#ff6355;}.cls-4{fill:#1a1a1a;}</style></defs><g id="Layer_2" data-name="Layer 2"><g id="Layer_1-2" data-name="Layer 1"><rect class="cls-1" width="64" height="64"/><path class="cls-2" d="M64,41.18c0,10.37-3.47,12.52-20.77,12.94-3.24.08-7,.1-11.23.1s-7.9,0-11.11-.1C3.48,53.71,0,51.58,0,41.18A31.82,31.82,0,0,1,32,9.55,31.82,31.82,0,0,1,64,41.18Z"/><path d="M6.23,41.72a.41.41,0,0,1,.42.41h0a.41.41,0,0,1-.42.41H3.66a.41.41,0,0,1-.42-.41v0a.41.41,0,0,1,.42-.41Z"/><path d="M7.67,27.77,9.9,29a.42.42,0,0,1,.15.57h0a.42.42,0,0,1-.57.16L7.24,28.5a.41.41,0,0,1-.15-.56v0A.42.42,0,0,1,7.67,27.77Z"/><path d="M18.2,17.67l1.28,2.2a.41.41,0,0,1-.15.57h0a.41.41,0,0,1-.57-.15l-1.29-2.2a.41.41,0,0,1,.15-.56h0A.43.43,0,0,1,18.2,17.67Z"/><path d="M32,13.72h0a.41.41,0,0,1,.42.41v2.54a.42.42,0,0,1-.42.42h0a.42.42,0,0,1-.42-.42V14.13A.41.41,0,0,1,32,13.72Z"/><path d="M46.37,17.52h0a.41.41,0,0,1,.15.56l-1.29,2.2a.41.41,0,0,1-.57.15h0a.41.41,0,0,1-.15-.57l1.28-2.2A.43.43,0,0,1,46.37,17.52Z"/><path d="M56.9,27.92v0a.41.41,0,0,1-.15.56l-2.23,1.27a.42.42,0,0,1-.57-.16h0A.42.42,0,0,1,54.1,29l2.23-1.27A.42.42,0,0,1,56.9,27.92Z"/><path d="M60.76,42.13v0a.41.41,0,0,1-.42.41H57.77a.41.41,0,0,1-.42-.41h0a.41.41,0,0,1,.42-.41h2.57A.41.41,0,0,1,60.76,42.13Z"/><rect class="cls-3" x="31.43" y="23.41" width="0.92" height="24.21" rx="0.46"/><path class="cls-4" d="M43.24,53.89c0,.15,0,.31,0,.46-3.24.08-7,.1-11.23.1s-7.9,0-11.11-.1c0-.15,0-.31,0-.46,0-4.82,3.74-8.72,11.18-8.72S43.24,49.07,43.24,53.89Z"/></g></g></svg>