<svg xmlns="http://www.w3.org/2000/svg" viewBox="0 0 72 72"><defs><style>.cls-1{fill:#fff;}.cls-2{fill:#591fff;}.cls-3{fill:#ff0060;}.cls-4{fill:#2f101e;}.cls-5{fill:#a65b45;}.cls-6{fill:#eda1c7;}</style></defs><g id="Layer_2" data-name="Layer 2"><g id="Layer_1-2" data-name="Layer 1"><path class="cls-1" d="M45.47,0H26.53C5.76,0,0,5.76,0,26.53V45.47C0,66.24,5.76,72,26.53,72H45.47C66.24,72,72,66.24,72,45.47V26.53C72,5.76,66.24,0,45.47,0Z"/><path class="cls-2" d="M47.68,25.38c0,.11,0,.21,0,.32,1.58.06,3.4.07,5.48.07s3.86,0,5.43-.07v-.32c0-6.08-1.83-6.1-5.46-6.1S47.68,19.3,47.68,25.38Z"/><path class="cls-3" d="M12.91,25.38c0,.11,0,.21,0,.32,1.58.06,3.39.07,5.48.07s3.86,0,5.42-.07c0-.1,0-.21,0-.32,0-6.08-1.83-6.1-5.46-6.1S12.91,19.3,12.91,25.38Z"/><rect class="cls-4" x="6" y="24.94" width="60" height="23.77" rx="7.87"/><rect class="cls-5" x="10.37" y="35.05" width="51.27" height="3.56" rx="1.78"/><circle class="cls-6" cx="13.92" cy="36.91" r="4.85"/></g></g></svg>