<svg xmlns="http://www.w3.org/2000/svg" viewBox="0 0 64 64"><defs><style>.cls-1{fill:none;}.cls-2{fill:#591fff;}.cls-3{fill:#ff0060;}.cls-4{fill:#1a1a1a;}.cls-5{fill:#00e260;}</style></defs><g id="Layer_2" data-name="Layer 2"><g id="Layer_1-2" data-name="Layer 1"><rect class="cls-1" width="64" height="64"/><path class="cls-2" d="M19.13,16.28c0,.12,0,.23,0,.34-1.7.06-3.64.08-5.88.08s-4.14,0-5.82-.07v-.35c0-6.52,2-6.54,5.85-6.54S19.13,9.76,19.13,16.28Z"/><path class="cls-3" d="M56.58,16.28v.34c-1.7.06-3.65.08-5.88.08s-4.14,0-5.82-.07c0-.12,0-.23,0-.35,0-6.52,2-6.54,5.86-6.54S56.58,9.76,56.58,16.28Z"/><path class="cls-4" d="M55.56,15.81H8.44C1.84,15.81,0,17.65,0,24.25V45.82c0,6.6,1.84,8.44,8.44,8.44H55.56c5.21,0,7.45-1.14,8.16-4.86,0-.2.08-.42.11-.65A21.23,21.23,0,0,0,64,45.82V24.25C64,17.65,62.16,15.81,55.56,15.81Z"/><path class="cls-5" d="M11.61,21.53H7.51c-3.07,0-3.93.86-3.93,3.93V44.6c0,3.08.86,3.93,3.93,3.93h4.1c3.08,0,3.93-.85,3.93-3.93V25.46C15.54,22.39,14.69,21.53,11.61,21.53Z"/><path class="cls-5" d="M26.57,21.53h-4.1c-3.07,0-3.93.86-3.93,3.93V44.6c0,3.08.86,3.93,3.93,3.93h4.1c3.08,0,3.93-.85,3.93-3.93V25.46C30.5,22.39,29.65,21.53,26.57,21.53Z"/><path class="cls-5" d="M41.53,21.53h-4.1c-3.08,0-3.93.86-3.93,3.93V44.6c0,3.08.85,3.93,3.93,3.93h4.1c3.07,0,3.93-.85,3.93-3.93V25.46C45.46,22.39,44.6,21.53,41.53,21.53Z"/><path class="cls-5" d="M56.49,21.53h-4.1c-3.08,0-3.93.86-3.93,3.93V44.6c0,3.08.85,3.93,3.93,3.93h4.1c3.07,0,3.93-.85,3.93-3.93V25.46C60.42,22.39,59.56,21.53,56.49,21.53Z"/></g></g></svg>