<svg xmlns="http://www.w3.org/2000/svg" viewBox="0 0 50 50"><defs><style>.cls-1{fill:#ff914a;}.cls-2{fill:#fff;}.cls-3{fill:#1a1a1a;}</style></defs><g id="Layer_2" data-name="Layer 2"><g id="Layer_1-2" data-name="Layer 1"><path class="cls-1" d="M50,18.42v6.37a31,31,0,0,0-50,0V18.42C0,4,4,0,18.42,0H31.58C46,0,50,4,50,18.42Z"/><path class="cls-2" d="M50,24.79v6.78c0,12.93-3.21,17.49-14.27,18.29C35,46,31.52,43,25.32,42.91h-.89c-6,.19-9.36,3.12-10.07,6.95C3.23,49.08,0,44.54,0,31.57V24.76a31,31,0,0,1,50,0Z"/><path class="cls-3" d="M35.73,49.86c-1.27.1-2.66.14-4.15.14H18.42c-1.46,0-2.81,0-4.06-.13.71-3.83,4.08-6.76,10.07-6.95h.89C31.52,43,35,46,35.73,49.86Z"/><path class="cls-3" d="M18.64,31.62H14.1l8.27-23.5h5.26l8.28,23.5H31.37L25.09,12.94h-.18Zm.15-9.22H31.18v3.42H18.79Z"/></g></g></svg>