<svg xmlns="http://www.w3.org/2000/svg" viewBox="0 0 72 72"><defs><style>.cls-1{fill:#fff;}.cls-2{fill:#591fff;}.cls-3{fill:#ff0060;}.cls-4{fill:#ccbdcc;}.cls-5{fill:#ff6355;}.cls-6{fill:#4a7dff;}</style></defs><g id="Layer_2" data-name="Layer 2"><g id="Layer_1-2" data-name="Layer 1"><path class="cls-1" d="M45.47,0H26.53C5.76,0,0,5.76,0,26.53V45.47C0,66.24,5.76,72,26.53,72H45.47C66.24,72,72,66.24,72,45.47V26.53C72,5.76,66.24,0,45.47,0Z"/><path class="cls-2" d="M24,17.94c0,.1,0,.2,0,.3-1.5.06-3.23.07-5.22.07s-3.67,0-5.17-.06v-.31c0-5.79,1.74-5.8,5.2-5.8S24,12.15,24,17.94Z"/><path class="cls-3" d="M52.85,11.2c-3.6,0-5.42,0-5.42,6,0,3.09,3.23,1.63,3.36,4.57,0,1.93-.26,3-.72,3.44-.7.67-2.89.75-4.47.75H40v4h5.6c6.76,0,9-1.89,9.19-8h0c0-3.2,3.46-1.6,3.46-4.76C58.26,11.22,56.45,11.2,52.85,11.2Z"/><path class="cls-4" d="M64,42.5v8.07a19.77,19.77,0,0,1-.15,2.59c0,.19-.06.39-.1.57C63.12,57,61.12,58,56.49,58h-42A7.5,7.5,0,0,1,7,50.5v-25A7.49,7.49,0,0,1,14.49,18h20A7.5,7.5,0,0,1,42,25.5v2A7.49,7.49,0,0,0,49.49,35h7A7.5,7.5,0,0,1,64,42.5Z"/><path d="M31.49,31.1c0,3.4-6.49,4.24-6.49,4.24v-.07l-4-2.86v-7s.15-.14.07-.14.93.14.93.14v7s-4.5,1.32-4.5,2.86a.17.17,0,0,0,0,.07c-5.65-.14-6.78-.84-6.78-4.24a10.38,10.38,0,0,1,20.76,0Z"/><path class="cls-1" d="M12.76,31c.07.27.13.33.24.41h0c-.11.08-.17.14-.24-.41h-.84c-.07.55-.13.49.08.41h0c-.21-.08-.15-.14-.08-.41Z"/><rect class="cls-1" x="13.38" y="26.47" width="0.28" height="1.1" rx="0.14" transform="translate(-16.65 25.22) rotate(-60.01)"/><rect class="cls-1" x="16.59" y="23.26" width="0.28" height="1.1" rx="0.14" transform="translate(-9.66 11.55) rotate(-29.99)"/><path class="cls-1" d="M21.11,22h0c.08.08.14.15-.11.22v.83c.25.08.19.14.11-.05h0c-.08.19-.14.13.89.05v-.83C21,22.15,21,22.08,21.11,22Z"/><rect class="cls-1" x="24.94" y="23.67" width="1.1" height="0.28" rx="0.14" transform="translate(-7.88 33.97) rotate(-59.97)"/><rect class="cls-1" x="28.16" y="26.89" width="1.1" height="0.28" rx="0.14" transform="matrix(0.87, -0.5, 0.5, 0.87, -9.67, 17.99)"/><path class="cls-1" d="M30,31.41h0c.43.08.37.14.3-.41h-.84c-.07.55-.13.49-.46.41h0c.33-.08.39-.14.46-.41h.84C30.37,31.27,30.43,31.33,30,31.41Z"/><path class="cls-5" d="M21,25.41v7h1v-7c-1.08-.08-1-.14-.93-.14S21.22,25.33,21,25.41Z"/><path class="cls-4" d="M24.75,36v-.58c-1.05,0-2.26,0-3.64,0s-2.56,0-3.6,0V35h0a10.9,10.9,0,0,0,3.6.37,6.83,6.83,0,0,1,3.64.63Z"/><path class="cls-6" d="M56.64,40A4.36,4.36,0,0,1,61,44.36v6.17a11.78,11.78,0,0,1-.09,1.55,3.27,3.27,0,0,1,0,.35c-.37,2-1.54,2.57-4.24,2.57H14.36A4.36,4.36,0,0,1,10,50.64V44.35A4.35,4.35,0,0,1,14.35,40Z"/><rect class="cls-1" x="14" y="46" width="44" height="3" rx="1.46"/><circle cx="17.5" cy="47.5" r="4.5"/></g></g></svg>