<svg xmlns="http://www.w3.org/2000/svg" viewBox="0 0 72 72"><defs><style>.cls-1{fill:#fff;}.cls-2{fill:#591fff;}.cls-3{fill:#ff0060;}.cls-4{fill:#ffb45f;}.cls-5{fill:#f18224;}.cls-6{fill:#fffcbf;}.cls-7{fill:#383838;}</style></defs><g id="Layer_2" data-name="Layer 2"><g id="Layer_1-2" data-name="Layer 1"><path class="cls-1" d="M45.47,0H26.53C5.76,0,0,5.76,0,26.53V45.47C0,66.24,5.76,72,26.53,72H45.47C66.24,72,72,66.24,72,45.47V26.53C72,5.76,66.24,0,45.47,0Z"/><path class="cls-2" d="M11.15,41.08h.3c.05-1.47.06-3.16.06-5.11s0-3.59-.06-5h-.3c-5.7,0-5.72,1.7-5.72,5.08S5.45,41.08,11.15,41.08Z"/><path class="cls-3" d="M60.85,30.92h-.3c0,1.47-.06,3.16-.06,5.11s0,3.59.06,5h.3c5.7,0,5.72-1.7,5.72-5.08S66.55,30.92,60.85,30.92Z"/><path class="cls-4" d="M45.94,41.92V30.08H47c4.55,0,2.88-3.94,7-3.94h.2c5.78,0,7.38,1.61,7.38,7.41v4.9c0,5.8-1.6,7.41-7.38,7.41H54c-4.1,0-2.43-3.94-7-3.94Z"/><path class="cls-4" d="M10.44,38.45v-4.9c0-5.8,1.6-7.41,7.38-7.41H18c4.1,0,2.43,3.94,7,3.94h1.06V41.92H25c-4.55,0-2.88,3.94-7,3.94h-.2C12,45.86,10.44,44.25,10.44,38.45Z"/><rect class="cls-5" x="42.45" y="30.08" width="3.49" height="11.83"/><rect class="cls-6" x="37.14" y="30.08" width="5.31" height="11.83"/><rect class="cls-5" x="26.06" y="30.08" width="6.22" height="11.83"/><rect class="cls-7" x="31.68" y="30.08" width="5.46" height="11.83"/></g></g></svg>