<svg xmlns="http://www.w3.org/2000/svg" xmlns:xlink="http://www.w3.org/1999/xlink" viewBox="0 0 64 64"><defs><style>.cls-1{fill:none;}.cls-2{fill:#333;}.cls-3{fill:#fff;}.cls-4{fill:url(#linear-gradient);}</style><linearGradient id="linear-gradient" x1="43.02" y1="48.8" x2="59.89" y2="39.06" gradientUnits="userSpaceOnUse"><stop offset="0" stop-color="#fff"/><stop offset="0.23" stop-color="#fcfcfc"/><stop offset="0.37" stop-color="#f4f4f4"/><stop offset="0.49" stop-color="#e6e6e6"/><stop offset="0.59" stop-color="#d1d1d1"/><stop offset="0.69" stop-color="#b7b7b7"/><stop offset="0.77" stop-color="#969696"/><stop offset="0.86" stop-color="#707070"/><stop offset="0.93" stop-color="#444"/><stop offset="0.96" stop-color="#333"/></linearGradient></defs><g id="Layer_2" data-name="Layer 2"><g id="Layer_1-2" data-name="Layer 1"><rect class="cls-1" width="64" height="64"/><path class="cls-2" d="M60.75,14.49a14.81,14.81,0,0,0-1.68-1.68,13.83,13.83,0,0,0-17.84,0,13.33,13.33,0,0,0-1.68,1.68,13.85,13.85,0,0,0,0,17.83A13.33,13.33,0,0,0,41.23,34a13.87,13.87,0,0,0,17.84,0,14.81,14.81,0,0,0,1.68-1.68,13.85,13.85,0,0,0,0-17.83ZM58.3,30.26A10.48,10.48,0,0,1,57,31.55a10.63,10.63,0,0,1-13.72,0A9.83,9.83,0,0,1,42,30.26a10.63,10.63,0,0,1,0-13.72,11.22,11.22,0,0,1,1.29-1.29,10.66,10.66,0,0,1,13.72,0,12.09,12.09,0,0,1,1.29,1.29,10.66,10.66,0,0,1,0,13.72Z"/><path class="cls-3" d="M39.62,17.55A22.43,22.43,0,0,0,8,14.83a21.76,21.76,0,0,0-2.71,2.72,22.41,22.41,0,0,0,0,28.9A21.76,21.76,0,0,0,8,49.17,22.44,22.44,0,0,0,39.62,17.55Zm-4,25.57a18.75,18.75,0,0,1-2.09,2.09,17.26,17.26,0,0,1-22.24,0,18.75,18.75,0,0,1-2.09-2.09,17.26,17.26,0,0,1,0-22.24,18.75,18.75,0,0,1,2.09-2.09,17.26,17.26,0,0,1,22.24,0,18.75,18.75,0,0,1,2.09,2.09,17.26,17.26,0,0,1,0,22.24Z"/><path class="cls-3" d="M28.9,35.73,39.62,46.45a22.54,22.54,0,0,1-2.72,2.72L26.18,38.45a5.28,5.28,0,0,0-7.46,0L8,49.17a21.76,21.76,0,0,1-2.71-2.72L16,35.73a5.28,5.28,0,0,0,0-7.46L5.28,17.55A21.76,21.76,0,0,1,8,14.83L18.72,25.55a5.28,5.28,0,0,0,7.46,0L36.9,14.83a22.54,22.54,0,0,1,2.72,2.72L28.9,28.27A5.28,5.28,0,0,0,28.9,35.73Z"/><path class="cls-4" d="M42.89,38.5l-3.4,4.11s4.77,10.29,14.3,9.6,3.4-17.82,3.4-17.82h-.68s4.09,13-3.4,13.71S42.89,38.5,42.89,38.5Z"/></g></g></svg>