<svg xmlns="http://www.w3.org/2000/svg" viewBox="0 0 67 67"><defs><style>.cls-1{fill:#fff;}.cls-2{fill:#750094;}.cls-3{fill:#a200b4;}.cls-4{fill:#f035ff;}</style></defs><g id="Layer_2" data-name="Layer 2"><g id="Layer_1-2" data-name="Layer 1"><path class="cls-1" d="M42.31,0H24.71C5.38,0,0,5.38,0,24.69V42.31C0,61.62,5.38,67,24.71,67h17.6C61.64,67,67,61.62,67,42.31V24.69C67,5.38,62,0,42.31,0Z"/><path class="cls-2" d="M26.7,46.9c-.91-6.92,0-9.94,4.24-13,2.93-2.1,6.17-2.6,8.77-3s4-.66,5.3-1.69a5.79,5.79,0,0,0,1.55-6.93C45,19.06,40,17.47,34.94,18.57c-4.57,1-8.12,4.34-9.16,7.77H18.69C20.37,20.81,27,15.46,34.32,13.86c8-1.74,15.89.82,18.4,6,1.63,3.34,1.26,8.64-3.42,12.37-3.16,2.53-6.68,3.08-9.52,3.52-2.28.35-3.73.61-4.89,1.44-2.15,1.54-3.24,4.27-2,9.75Z"/><path class="cls-3" d="M26.7,46.9C25,39.38,25.46,36.09,29.37,32.76c2.68-2.28,5.86-2.83,8.41-3.26s3.94-.73,5.1-1.85c2.08-2,1.92-5.37.71-7.53-2-3.49-7.14-5.22-12.07-4a10.94,10.94,0,0,0-8.22,8.44H16.21c1-6,7-11.83,14.13-13.57,7.77-1.89,16,.9,19.12,6.48a11.15,11.15,0,0,1-1.93,13.46c-2.85,2.74-6.32,3.34-9.1,3.82-2.23.39-3.66.67-4.71,1.57-2,1.67-2.73,4.64-.82,10.6Z"/><path class="cls-4" d="M26.7,46.9C24,38.62,24.1,35,27.6,31.34c2.39-2.51,5.49-3.12,8-3.6s3.85-.8,4.87-2c1.83-2.2,1.25-5.92-.23-8.29-2.39-3.84-7.8-5.75-12.58-4.43a10,10,0,0,0-7.16,9.3H13.4c.26-6.63,5.49-13,12.43-14.94,7.53-2.08,16.1,1,19.93,7.13,2.49,4,3.48,10.35-.24,14.82-2.51,3-5.9,3.68-8.62,4.2-2.18.43-3.57.74-4.52,1.73-1.75,1.84-2.14,5.11.52,11.67Z"/><circle class="cls-4" cx="31.83" cy="55.27" r="5.03"/><circle class="cls-3" cx="45.23" cy="45.22" r="8.38"/></g></g></svg>