<svg xmlns="http://www.w3.org/2000/svg" viewBox="0 0 72 72"><defs><style>.cls-1{fill:#fff;}.cls-2{fill:#591fff;}.cls-3{fill:#ff0060;}.cls-4{fill:#171b2d;}</style></defs><g id="Layer_2" data-name="Layer 2"><g id="Layer_1-2" data-name="Layer 1"><path class="cls-1" d="M45.47,0H26.53C5.76,0,0,5.76,0,26.53V45.47C0,66.24,5.76,72,26.53,72H45.47C66.24,72,72,66.24,72,45.47V26.53C72,5.76,66.24,0,45.47,0Z"/><path class="cls-2" d="M23.89,17.94v.3c-1.51.06-3.24.07-5.23.07s-3.67,0-5.17-.06v-.31c0-5.79,1.74-5.8,5.2-5.8S23.89,12.15,23.89,17.94Z"/><path class="cls-3" d="M57,17.94c0,.1,0,.2,0,.3-1.5.06-3.23.07-5.22.07s-3.68,0-5.17-.06c0-.1,0-.21,0-.31,0-5.79,1.75-5.8,5.21-5.8S57,12.15,57,17.94Z"/><path class="cls-4" d="M56.51,18h-42A7.5,7.5,0,0,0,7,25.5v25A7.5,7.5,0,0,0,14.5,58h42c4.64,0,6.64-1,7.27-4.27,0-.18.07-.38.1-.57A19.77,19.77,0,0,0,64,50.57V25.49A7.49,7.49,0,0,0,56.51,18Z"/></g></g></svg>