<svg xmlns="http://www.w3.org/2000/svg" viewBox="0 0 72 72"><defs><style>.cls-1{fill:#1a1a1a;}.cls-2{fill:#fff;}.cls-3{fill:#ff6355;}</style></defs><g id="Layer_2" data-name="Layer 2"><g id="Layer_1-2" data-name="Layer 1"><path class="cls-1" d="M72,26.52V35.7a44.65,44.65,0,0,0-72-.05V26.52C0,5.75,5.76,0,26.52,0h19C66.24,0,72,5.75,72,26.52Z"/><path class="cls-2" d="M72,35.7v9.76c0,18.62-4.62,25.19-20.55,26.34-1.05-5.62-6.06-9.88-15-10H35.18c-8.63.28-13.48,4.5-14.5,10C4.65,70.68,0,64.14,0,45.46V35.65a44.65,44.65,0,0,1,72,.05Z"/><path class="cls-3" d="M36.8,34.81V65.7h-.49c-.37,0-.74,0-1.11,0V34.81A.8.8,0,0,1,36,34,.82.82,0,0,1,36.8,34.81Z"/><path class="cls-1" d="M51.39,71.8c-1.83.14-3.83.2-6,.2H26.46q-3.15,0-5.85-.19c1-5.51,5.88-9.73,14.5-10H36.4C45.32,61.92,50.34,66.18,51.39,71.8Z"/><path d="M11.54,29l2.28,3.95a.75.75,0,0,1-.28,1h0a.74.74,0,0,1-1-.27l-2.28-3.94a.74.74,0,0,1,.27-1l0,0A.75.75,0,0,1,11.54,29Z"/><path d="M36,21.86h0a.74.74,0,0,1,.74.74v4.56a.75.75,0,0,1-.75.74h0a.75.75,0,0,1-.75-.74V22.6A.74.74,0,0,1,36,21.86Z"/><path d="M61.47,28.68l0,0a.74.74,0,0,1,.27,1l-2.28,3.94a.74.74,0,0,1-1,.27h0a.75.75,0,0,1-.28-1L60.46,29A.75.75,0,0,1,61.47,28.68Z"/></g></g></svg>