<svg xmlns="http://www.w3.org/2000/svg" viewBox="0 0 371 182"><defs><style>.cls-1{fill:#591fff;}.cls-2{fill:#ff0060;}.cls-3{fill:#2f101e;}</style></defs><g id="Layer_2" data-name="Layer 2"><g id="Layer_1-2" data-name="Layer 1"><path class="cls-1" d="M259.24,37.7c0,.67,0,1.32.05,2,9.77.35,21,.43,33.88.43,12.74,0,23.86-.08,33.54-.42,0-.66.05-1.32.05-2C326.76.11,315.44,0,293,0S259.24.11,259.24,37.7Z"/><path class="cls-2" d="M44.24,37.7c0,.67,0,1.32,0,2,9.77.35,21,.43,33.88.43,12.74,0,23.86-.08,33.54-.42,0-.66.05-1.32.05-2C111.76.11,100.44,0,78,0S44.24.11,44.24,37.7Z"/><path class="cls-3" d="M48.65,35h273.7C360.42,35,371,45.58,371,83.65v49.7c0,38.07-10.58,48.65-48.65,48.65H48.65C10.58,182,0,171.42,0,133.35V83.65C0,45.58,10.58,35,48.65,35Z"/></g></g></svg>