<svg xmlns="http://www.w3.org/2000/svg" viewBox="0 0 130 403"><defs><style>.cls-1{fill:#591fff;}.cls-2{fill:#ff0060;}.cls-3{fill:#ffb45f;}.cls-4{fill:#f18224;}.cls-5{fill:#fffcbf;}.cls-6{fill:#383838;}</style></defs><g id="Layer_2" data-name="Layer 2"><g id="Layer_1-2" data-name="Layer 1"><path class="cls-1" d="M98.5,365.31c0-.67,0-1.32,0-2-9.7-.35-20.84-.43-33.63-.43-12.64,0-23.68.08-33.29.42,0,.66,0,1.32,0,2C31.5,402.89,42.73,403,65,403S98.5,402.89,98.5,365.31Z"/><path class="cls-2" d="M31.5,37.69c0,.67,0,1.32,0,2,9.7.35,20.84.43,33.63.43,12.64,0,23.68-.08,33.29-.42,0-.66,0-1.32,0-2C98.5.11,87.27,0,65,0S31.5.11,31.5,37.69Z"/><path class="cls-3" d="M104,136H26v-7C26,99,0,110,0,83V81.65C0,43.58,10.62,33,48.82,33H81.18C119.38,33,130,43.58,130,81.65V83c0,27-26,16-26,46Z"/><path class="cls-3" d="M81.18,370H48.82C10.62,370,0,359.42,0,321.35V320c0-27,26-16,26-46v-7h78v7c0,30,26,19,26,46v1.35C130,359.42,119.38,370,81.18,370Z"/><rect class="cls-4" x="26" y="136" width="78" height="23"/><rect class="cls-5" x="26" y="159" width="78" height="35"/><rect class="cls-4" x="26" y="226" width="78" height="41"/><rect class="cls-6" x="26" y="194" width="78" height="36"/></g></g></svg>