<svg xmlns="http://www.w3.org/2000/svg" viewBox="0 0 901 756"><defs><style>.cls-1,.cls-2,.cls-3{fill:none;}.cls-2{stroke:#591fff;}.cls-2,.cls-3{stroke-linejoin:round;stroke-width:10px;}.cls-3{stroke:#ff0060;}</style></defs><g id="Layer_2" data-name="Layer 2"><g id="Layer_1-2" data-name="Layer 1"><rect class="cls-1" width="901" height="756"/><path class="cls-2" d="M840,541.88V456.53c0-38.07-10.58-48.65-48.65-48.65H719"/><path class="cls-2" d="M728,409V353.65c0-38.07-10.58-48.65-48.65-48.65H607"/><path class="cls-2" d="M840,490.5v55.85c0,38.07-10.58,48.65-48.65,48.65H719"/><path class="cls-2" d="M172,305H123.65C85.58,305,75,315.58,75,353.65V476"/><line class="cls-2" x1="75" y1="381" x2="75" y2="76"/><path class="cls-3" d="M541,595H449.65C411.58,595,401,584.42,401,546.35V408"/><path class="cls-3" d="M290,480V353.65c0-38.07,10.58-48.65,48.65-48.65H373"/><path class="cls-2" d="M807,305h40.35c38.07,0,48.65-10.58,48.65-48.65V53.65C896,15.58,885.42,5,847.35,5H123.65C85.58,5,75,15.58,75,53.65V77"/><line class="cls-3" x1="290" y1="407.88" x2="512" y2="407.88"/></g></g></svg>