<svg xmlns="http://www.w3.org/2000/svg" viewBox="0 0 437 271"><defs><style>.cls-1{fill:#dfffe3;}.cls-2{fill:#1a1a1a;}</style></defs><g id="Layer_2" data-name="Layer 2"><g id="Layer_1-2" data-name="Layer 1"><path class="cls-1" d="M388.35,0H48.65C10.58,0,0,10.58,0,48.65v173.7C0,260.42,10.58,271,48.65,271h339.7c30,0,42.93-6.57,47.06-28,.23-1.19.44-2.44.62-3.73a126.93,126.93,0,0,0,1-16.93V48.65C437,10.58,426.42,0,388.35,0Z"/><path class="cls-2" d="M299,77.55h6.29L312,90h6.89l-7.39-13.53c.22-.09.45-.17.66-.27a9.19,9.19,0,0,0,4.09-3.71,11.16,11.16,0,0,0,1.39-5.69,11.47,11.47,0,0,0-1.37-5.72,9.42,9.42,0,0,0-4.05-3.82,14.39,14.39,0,0,0-6.6-1.37h-12.8V90H299Zm0-16.46h5.67a9.1,9.1,0,0,1,3.78.68,4.6,4.6,0,0,1,2.18,2,6.3,6.3,0,0,1,.72,3.11,6.13,6.13,0,0,1-.71,3.06,4.53,4.53,0,0,1-2.17,1.88,9.46,9.46,0,0,1-3.77.64H299Z"/><path class="cls-2" d="M329.42,63.13a4.75,4.75,0,0,1,2-2,6,6,0,0,1,2.94-.69,6.56,6.56,0,0,1,2.92.63,4.92,4.92,0,0,1,2,1.79,5.07,5.07,0,0,1,.74,2.77,6.34,6.34,0,0,1-.57,2.67,11.2,11.2,0,0,1-1.7,2.58c-.75.89-1.7,1.91-2.83,3L323.05,85.58V90h23.38V84.88H331.57v-.23l5.88-6a66.61,66.61,0,0,0,5.16-5.45,15.91,15.91,0,0,0,2.57-4.1,10.11,10.11,0,0,0,.74-3.76,9.21,9.21,0,0,0-1.44-5.1,9.84,9.84,0,0,0-4-3.51,13.44,13.44,0,0,0-6-1.29,13.07,13.07,0,0,0-6,1.32,10.06,10.06,0,0,0-4.09,3.71,10.53,10.53,0,0,0-1.48,5.65h5.88A6.17,6.17,0,0,1,329.42,63.13Z"/><polygon class="cls-2" points="175.16 144.68 174.84 144.68 166.52 119.52 160.17 119.52 171.42 151.48 178.56 151.48 189.83 119.52 183.47 119.52 175.16 144.68"/><path class="cls-2" d="M354.38,142.26,343,174.64h6.26l2.68-8h12.17l2.68,8H373l-11.42-32.38Zm-.88,19.68,4.37-13h.26l4.38,13Z"/><path class="cls-2" d="M395.5,160.5a37.5,37.5,0,0,0-32-37.09V104.5h-62v-10h-61v32h61v-11h51v7.91a37.49,37.49,0,0,0,0,74.18v6.91h-51v-10h-61v11h-60V172.59a37.49,37.49,0,0,0,0-74.18V65.5h85v16h-8l13.5,10,13.5-10h-8v-27H74.5v64h-33v11h77v-11h-33v-53h84V98.41a37.49,37.49,0,0,0,0,74.18V205.5h-84v-53h20v-11h-51v11h20v64h166v10h61v-11h62V197.59A37.5,37.5,0,0,0,395.5,160.5Zm-105-45h-39v-10h39Zm-115.5,47a27,27,0,1,1,27-27A27,27,0,0,1,175,162.46Zm115.5,53h-39v-10h39Zm67.5-28a27,27,0,1,1,27-27A27,27,0,0,1,358,187.46Z"/><path class="cls-2" d="M272.4,171.53a11.16,11.16,0,0,0,1.39-5.69,11.58,11.58,0,0,0-1.37-5.72,9.42,9.42,0,0,0-4.05-3.82,14.44,14.44,0,0,0-6.61-1.37H249V189h6.18V176.55h6.29l6.7,12.49H275l-7.39-13.53c.22-.09.45-.17.66-.27A9.24,9.24,0,0,0,272.4,171.53Zm-5.61-2.63a4.55,4.55,0,0,1-2.18,1.88,9.38,9.38,0,0,1-3.76.64h-5.7V160.09h5.66a9.12,9.12,0,0,1,3.79.68,4.65,4.65,0,0,1,2.18,2,6.3,6.3,0,0,1,.71,3.11A6.13,6.13,0,0,1,266.79,168.9Z"/><polygon class="cls-2" points="293.03 189.04 293.03 154.93 287.15 154.93 278.67 160.38 278.67 166.04 286.65 160.94 286.85 160.94 286.85 189.04 293.03 189.04"/></g></g></svg>