<svg xmlns="http://www.w3.org/2000/svg" viewBox="0 0 437 271"><defs><style>.cls-1{fill:#ffe6d4;}.cls-2{fill:#1a1a1a;}</style></defs><g id="Layer_2" data-name="Layer 2"><g id="Layer_1-2" data-name="Layer 1"><path class="cls-1" d="M388.35,0H48.65C10.58,0,0,10.58,0,48.65v173.7C0,260.42,10.58,271,48.65,271h339.7c30,0,42.93-6.57,47.06-28,.23-1.19.44-2.44.62-3.73a126.93,126.93,0,0,0,1-16.93V48.65C437,10.58,426.42,0,388.35,0Z"/><polygon class="cls-2" points="188.83 119.52 182.47 119.52 174.16 144.68 173.84 144.68 165.52 119.52 159.17 119.52 170.42 151.48 177.56 151.48 188.83 119.52"/><path class="cls-2" d="M355.38,117.26,344,149.64h6.26l2.68-8h12.17l2.68,8H374l-11.42-32.38Zm-.88,19.68,4.37-13h.26l4.38,13Z"/><path class="cls-2" d="M396.5,135.5a37.5,37.5,0,0,0-74.52-6H300.5v-10h-61v32h61v-11h21.34a37.52,37.52,0,0,0,31.66,32.09V205.5h-174V172.59a37.49,37.49,0,0,0,0-74.18V65.5h85v43h-8l13.5,10,13.5-10h-8v-54H73.5v64h-33v11h77v-11h-33v-53h84V98.41a37.49,37.49,0,0,0,0,74.18V205.5h-84v-53h20v-11h-51v11h20v64h291V172.59A37.5,37.5,0,0,0,396.5,135.5Zm-107,5h-39v-10h39ZM147,135.5a27,27,0,1,1,27,27A27,27,0,0,1,147,135.5Zm212,27a27,27,0,1,1,27-27A27,27,0,0,1,359,162.46Z"/><path class="cls-2" d="M271.4,171.53a11.16,11.16,0,0,0,1.39-5.69,11.58,11.58,0,0,0-1.37-5.72,9.42,9.42,0,0,0-4.05-3.82,14.44,14.44,0,0,0-6.61-1.37H248V189h6.18V176.55h6.29l6.7,12.49H274l-7.39-13.53c.22-.09.45-.17.66-.27A9.24,9.24,0,0,0,271.4,171.53Zm-17.25-11.44h5.66a9.12,9.12,0,0,1,3.79.68,4.65,4.65,0,0,1,2.18,2,6.3,6.3,0,0,1,.71,3.11,6.13,6.13,0,0,1-.7,3.06,4.55,4.55,0,0,1-2.18,1.88,9.38,9.38,0,0,1-3.76.64h-5.7Z"/><polygon class="cls-2" points="292.03 189.04 292.03 154.93 286.15 154.93 277.67 160.38 277.67 166.04 285.65 160.94 285.85 160.94 285.85 189.04 292.03 189.04"/></g></g></svg>