<svg xmlns="http://www.w3.org/2000/svg" viewBox="0 0 437 271"><defs><style>.cls-1{fill:#d9d4ff;}.cls-2{fill:#1a1a1a;}</style></defs><g id="Layer_2" data-name="Layer 2"><g id="Layer_1-2" data-name="Layer 1"><path class="cls-1" d="M388.35,0H48.65C10.58,0,0,10.58,0,48.65v173.7C0,260.42,10.58,271,48.65,271h339.7c30,0,42.93-6.57,47.06-28,.23-1.19.44-2.44.62-3.73a126.93,126.93,0,0,0,1-16.93V48.65C437,10.58,426.42,0,388.35,0Z"/><path class="cls-2" d="M207.79,182.53a11.16,11.16,0,0,0,1.39-5.69,11.47,11.47,0,0,0-1.37-5.72,9.42,9.42,0,0,0-4.05-3.82,14.39,14.39,0,0,0-6.6-1.37h-12.8V200h6.18V187.55h6.29L203.54,200h6.89L203,186.51c.22-.09.45-.17.66-.27A9.19,9.19,0,0,0,207.79,182.53Zm-17.25-11.44h5.67a9.1,9.1,0,0,1,3.78.68,4.6,4.6,0,0,1,2.18,2,6.3,6.3,0,0,1,.72,3.11,6.13,6.13,0,0,1-.71,3.06,4.53,4.53,0,0,1-2.17,1.88,9.46,9.46,0,0,1-3.77.64h-5.7Z"/><path class="cls-2" d="M229.22,180.92c-.75.89-1.7,1.91-2.83,3.05l-11.84,11.61V200h23.38v-5.16H223.07v-.23l5.88-6a66.61,66.61,0,0,0,5.16-5.45,15.91,15.91,0,0,0,2.57-4.1,10.11,10.11,0,0,0,.74-3.76,9.21,9.21,0,0,0-1.44-5.1,9.84,9.84,0,0,0-4-3.51,13.44,13.44,0,0,0-6-1.29,13.07,13.07,0,0,0-6,1.32,10.06,10.06,0,0,0-4.09,3.71,10.53,10.53,0,0,0-1.48,5.65h5.88a6.17,6.17,0,0,1,.69-3,4.75,4.75,0,0,1,2-2,6,6,0,0,1,2.94-.69,6.56,6.56,0,0,1,2.92.63,4.92,4.92,0,0,1,2,1.79,5.07,5.07,0,0,1,.74,2.77,6.34,6.34,0,0,1-.57,2.67A11.2,11.2,0,0,1,229.22,180.92Z"/><path class="cls-2" d="M372.88,142.26l-11.4,32.38h6.26l2.68-8h12.17l2.68,8h6.26l-11.41-32.38ZM372,161.94l4.37-13h.26l4.38,13Z"/><path class="cls-2" d="M414,160.5a37.5,37.5,0,0,0-32-37.09V107.5H306v-10H245v32h61v-11h9v57h-9v-10H245v32h61v-11h20v-68h45v4.91a37.49,37.49,0,0,0,0,74.18v7.91H162V172.59a37.49,37.49,0,0,0,0-74.18V65.5h61v85h47v3h-8l13.5,10,13.5-10h-8v-14H234v-57h36v3h-8l13.5,10,13.5-10h-8v-14H234v-17H56v64H23v11h77v-11H67v-53h84V98.41a37.49,37.49,0,0,0,0,74.18V205.5H67v-53H87v-11H36v11H56v64H382V197.59A37.5,37.5,0,0,0,414,160.5Zm-119-42H256v-10h39Zm0,68H256v-10h39Zm-165.46-51a27,27,0,1,1,27,27A27,27,0,0,1,129.54,135.5Zm247,52a27,27,0,1,1,27-27A27,27,0,0,1,376.5,187.46Z"/><polygon class="cls-2" points="171.33 119.52 164.97 119.52 156.66 144.68 156.34 144.68 148.02 119.52 141.67 119.52 152.92 151.48 160.06 151.48 171.33 119.52"/><path class="cls-2" d="M303.65,77.55h6.29L316.64,90h6.9l-7.39-13.53c.22-.09.45-.17.66-.27a9.24,9.24,0,0,0,4.09-3.71,11.16,11.16,0,0,0,1.39-5.69,11.58,11.58,0,0,0-1.37-5.72,9.42,9.42,0,0,0-4.05-3.82,14.44,14.44,0,0,0-6.61-1.37H297.47V90h6.18Zm5.66-16.46a9.12,9.12,0,0,1,3.79.68,4.65,4.65,0,0,1,2.18,2,6.3,6.3,0,0,1,.71,3.11,6.13,6.13,0,0,1-.7,3.06,4.55,4.55,0,0,1-2.18,1.88,9.38,9.38,0,0,1-3.76.64h-5.7V61.09Z"/><polygon class="cls-2" points="335.35 61.94 335.35 90.04 341.53 90.04 341.53 55.93 335.65 55.93 327.17 61.38 327.17 67.04 335.15 61.94 335.35 61.94"/></g></g></svg>