<svg xmlns="http://www.w3.org/2000/svg" viewBox="0 0 1075 710"><defs><style>.cls-1,.cls-2,.cls-3{fill:none;}.cls-2{stroke:#591fff;}.cls-2,.cls-3{stroke-linejoin:round;stroke-width:10px;}.cls-3{stroke:#ff0060;}</style></defs><g id="Layer_2" data-name="Layer 2"><g id="Layer_1-2" data-name="Layer 1"><rect class="cls-1" width="1075" height="710"/><path class="cls-2" d="M901,546.5V353.65c0-38.07-10.58-48.65-48.65-48.65H780"/><path class="cls-2" d="M346,305H297.65C259.58,305,249,315.58,249,353.65V433.5"/><line class="cls-2" x1="229" y1="438" x2="73" y2="438"/><path class="cls-3" d="M546,305h91.35c38.07,0,48.65,10.58,48.65,48.65V544"/><path class="cls-3" d="M464,427.67v-74c0-38.07,10.58-48.65,48.65-48.65H547"/><path class="cls-2" d="M981,305h40.35c38.07,0,48.65-10.58,48.65-48.65V53.65C1070,15.58,1059.42,5,1021.35,5H113.65C75.58,5,65,15.58,65,53.65V105"/></g></g></svg>