<svg xmlns="http://www.w3.org/2000/svg" viewBox="0 0 901 713"><defs><style>.cls-1,.cls-2,.cls-3{fill:none;}.cls-2{stroke:#591fff;}.cls-2,.cls-3{stroke-linejoin:round;stroke-width:10px;}.cls-3{stroke:#ff0060;}</style></defs><g id="Layer_2" data-name="Layer 2"><g id="Layer_1-2" data-name="Layer 1"><rect class="cls-1" width="901" height="713"/><path class="cls-2" d="M727,549.5V333.59a26.09,26.09,0,0,0-26.09-26.09H606"/><polyline class="cls-2" points="172 307.5 75 307.5 75 436.5"/><path class="cls-3" d="M372,307.5H485.91A26.09,26.09,0,0,1,512,333.59V547"/><path class="cls-3" d="M290,430.67V333.59a26.09,26.09,0,0,1,26.09-26.09H373"/><path class="cls-2" d="M807,307.5h62.91A26.09,26.09,0,0,0,896,281.41V34.59A26.09,26.09,0,0,0,869.91,8.5H100.18A26.08,26.08,0,0,0,74.09,34.68L75,307.5"/></g></g></svg>