<svg xmlns="http://www.w3.org/2000/svg" viewBox="0 0 297 297"><defs><style>.cls-1{fill:#1a1a1a;}.cls-2{fill:#fff;}</style></defs><g id="Layer_2" data-name="Layer 2"><g id="Layer_1-2" data-name="Layer 1"><path class="cls-1" d="M297,48.65v199.7c0,38.07-10.58,48.65-48.65,48.65H48.65C10.58,297,0,286.42,0,248.35V48.65C0,10.58,10.58,0,48.65,0h199.7C286.42,0,297,10.58,297,48.65Z"/><path class="cls-2" d="M285.66,149.66c0,44.83-14.81,54.11-88.72,55.92-13.82.34-29.7.42-47.94.42-18,0-33.75-.08-47.45-.41-74.34-1.78-89.21-11-89.21-55.93a136.66,136.66,0,0,1,273.32,0Z"/><path d="M39,152a1.78,1.78,0,0,1,1.78,1.79v.05A1.78,1.78,0,0,1,39,155.63H28a1.77,1.77,0,0,1-1.78-1.78v-.07A1.77,1.77,0,0,1,28,152Z"/><path d="M45.09,91.72l9.51,5.49a1.78,1.78,0,0,1,.64,2.45l0,0a1.79,1.79,0,0,1-2.44.67l-9.5-5.49a1.77,1.77,0,0,1-.66-2.43l0-.07A1.78,1.78,0,0,1,45.09,91.72Z"/><path d="M90.06,48.09l5.49,9.51A1.8,1.8,0,0,1,94.88,60l0,0a1.8,1.8,0,0,1-2.45-.64l-5.49-9.51a1.78,1.78,0,0,1,.65-2.43l.06,0A1.79,1.79,0,0,1,90.06,48.09Z"/><path d="M149,31H149a1.78,1.78,0,0,1,1.78,1.78v11A1.79,1.79,0,0,1,149,45.56H149a1.79,1.79,0,0,1-1.79-1.78v-11A1.78,1.78,0,0,1,149,31Z"/><path d="M210.38,47.44l.06,0a1.78,1.78,0,0,1,.65,2.43l-5.49,9.51a1.8,1.8,0,0,1-2.45.64l0,0a1.8,1.8,0,0,1-.67-2.44l5.49-9.51A1.79,1.79,0,0,1,210.38,47.44Z"/><path d="M255.34,92.37l0,.07a1.77,1.77,0,0,1-.66,2.43l-9.5,5.49a1.79,1.79,0,0,1-2.44-.67l0,0a1.78,1.78,0,0,1,.64-2.45l9.51-5.49A1.78,1.78,0,0,1,255.34,92.37Z"/><path d="M271.81,153.78v.07a1.77,1.77,0,0,1-1.78,1.78H259a1.78,1.78,0,0,1-1.78-1.79v-.05A1.78,1.78,0,0,1,259,152h11A1.77,1.77,0,0,1,271.81,153.78Z"/><path d="M47.4,152.75c.89-1.48,2.42-2.21,4.58-2.21s3.7.73,4.58,2.21a12,12,0,0,1,1.33,6.15,12.18,12.18,0,0,1-1.33,6.22q-1.32,2.24-4.58,2.24a4.9,4.9,0,0,1-4.58-2.24,12.18,12.18,0,0,1-1.33-6.22A12,12,0,0,1,47.4,152.75Zm7.71,3a4.15,4.15,0,0,0-1-2.08A2.74,2.74,0,0,0,52,152.9a2.77,2.77,0,0,0-2.16.81,4.23,4.23,0,0,0-1,2.08,17.08,17.08,0,0,0-.24,3.11,19.29,19.29,0,0,0,.22,3.21,4.11,4.11,0,0,0,1,2.09,3.34,3.34,0,0,0,4.34,0,4,4,0,0,0,1-2.09,19.16,19.16,0,0,0,.23-3.21A17.08,17.08,0,0,0,55.11,155.79Z"/><path d="M232.48,153.2v-2.37h4.73v16.58h-2.62V153.2Z"/><path d="M242.21,163.88c1.46-1.26,2.6-2.29,3.45-3.1a13.94,13.94,0,0,0,2.1-2.54,4.88,4.88,0,0,0,.84-2.63,3.24,3.24,0,0,0-.65-2.14,2.49,2.49,0,0,0-2-.78,2.59,2.59,0,0,0-2.08.86,3.51,3.51,0,0,0-.79,2.28h-2.5a5.57,5.57,0,0,1,9.22-4,4.87,4.87,0,0,1,1.4,3.64,6.51,6.51,0,0,1-.83,3.15,12.51,12.51,0,0,1-2,2.71c-.77.79-1.74,1.71-2.92,2.76l-1,.91h7.2v2.16H240.57v-1.89Z"/><path d="M59.38,114.88q2.19-1.89,3.45-3.1a13.94,13.94,0,0,0,2.1-2.54,4.88,4.88,0,0,0,.84-2.63,3.23,3.23,0,0,0-.64-2.14,2.53,2.53,0,0,0-2-.78,2.61,2.61,0,0,0-2.08.86,3.56,3.56,0,0,0-.78,2.28H57.72a5.57,5.57,0,0,1,9.22-4,4.84,4.84,0,0,1,1.4,3.64,6.4,6.4,0,0,1-.83,3.15,12.51,12.51,0,0,1-2,2.71c-.76.79-1.74,1.71-2.92,2.76l-1,.91H68.8v2.16h-11v-1.89Z"/><path d="M219.9,104.2v-2.37h4.73v16.58H222V104.2Z"/><path d="M229.53,103.75c.89-1.48,2.42-2.21,4.58-2.21s3.7.73,4.59,2.21A12.05,12.05,0,0,1,240,109.9a12.28,12.28,0,0,1-1.33,6.22,5.81,5.81,0,0,1-9.17,0,12.28,12.28,0,0,1-1.33-6.22A12.05,12.05,0,0,1,229.53,103.75Zm7.71,3a4.15,4.15,0,0,0-1-2.08,2.74,2.74,0,0,0-2.16-.81,2.77,2.77,0,0,0-2.16.81,4.23,4.23,0,0,0-1,2.08,17.08,17.08,0,0,0-.24,3.11,19.16,19.16,0,0,0,.23,3.21,4,4,0,0,0,1,2.09,3.36,3.36,0,0,0,4.35,0,4,4,0,0,0,1-2.09,19.16,19.16,0,0,0,.23-3.21A17.08,17.08,0,0,0,237.24,106.79Z"/><path d="M92.24,80V78L99.88,67H103V77.7h2.11V80H103v3.46h-2.55V80Zm8.35-10.28-5.37,8h5.37Z"/><path d="M194.09,71a4.33,4.33,0,0,1,.62-2.25,4.25,4.25,0,0,1,1.84-1.62,7.78,7.78,0,0,1,6,0,4.17,4.17,0,0,1,1.85,1.62A4.33,4.33,0,0,1,205,71a3.93,3.93,0,0,1-.65,2.24,4.22,4.22,0,0,1-1.72,1.49,4.18,4.18,0,0,1,2.05,1.56,4.35,4.35,0,0,1,.75,2.54,4.64,4.64,0,0,1-.75,2.61,4.87,4.87,0,0,1-2.09,1.75,7.26,7.26,0,0,1-3,.62,7.1,7.1,0,0,1-3-.62,4.84,4.84,0,0,1-2.08-1.75,4.64,4.64,0,0,1-.75-2.61,4.31,4.31,0,0,1,.75-2.55,4.23,4.23,0,0,1,2-1.55A3.91,3.91,0,0,1,194.09,71Zm3,5.61a2.54,2.54,0,0,0-1,2.13,2.7,2.7,0,0,0,.91,2.1,3.61,3.61,0,0,0,2.48.81,3.54,3.54,0,0,0,2.45-.82,2.74,2.74,0,0,0,.89-2.09,2.57,2.57,0,0,0-.92-2.12,3.7,3.7,0,0,0-2.42-.75A3.85,3.85,0,0,0,197.11,76.62Zm4.62-7.24a3.76,3.76,0,0,0-4.34,0,2.45,2.45,0,0,0-.79,2,2.32,2.32,0,0,0,.83,1.85,3.11,3.11,0,0,0,2.12.71,3.17,3.17,0,0,0,2.14-.72,2.37,2.37,0,0,0,.84-1.87A2.42,2.42,0,0,0,201.73,69.38Z"/><path d="M150.78,53.1a3.37,3.37,0,0,0-4.52.86,9,9,0,0,0-.94,4.56A3.9,3.9,0,0,1,147.05,57a5.68,5.68,0,0,1,2.46-.55,5.34,5.34,0,0,1,2.65.65A4.52,4.52,0,0,1,154,59a6.09,6.09,0,0,1,.65,2.93,6.34,6.34,0,0,1-.62,2.84,4.65,4.65,0,0,1-1.86,2,5.73,5.73,0,0,1-3,.72,5.82,5.82,0,0,1-3.67-1,5.45,5.45,0,0,1-1.87-2.92,17.47,17.47,0,0,1-.53-4.71q0-8.31,5.86-8.32a5,5,0,0,1,3.58,1.23,4.83,4.83,0,0,1,1.54,3h-2.39A2.78,2.78,0,0,0,150.78,53.1Zm-4.19,6.34a3,3,0,0,0-1,2.4,3.43,3.43,0,0,0,.9,2.49,3.35,3.35,0,0,0,2.51.92,2.94,2.94,0,0,0,2.26-.89,3.3,3.3,0,0,0,.83-2.37,3.62,3.62,0,0,0-.8-2.46,3,3,0,0,0-2.38-.92A3.45,3.45,0,0,0,146.59,59.44Z"/></g></g></svg>