<svg xmlns="http://www.w3.org/2000/svg" viewBox="0 0 223 59"><defs><style>.cls-1{fill:none;}</style></defs><g id="Layer_2" data-name="Layer 2"><g id="Layer_1-2" data-name="Layer 1"><rect class="cls-1" width="223" height="59"/><path d="M35.22,18.52c7.49,0,10.7,6.24,10.7,13.37s-3.21,13.38-10.7,13.38S24.52,39,24.52,31.89,27.73,18.52,35.22,18.52Zm8.92,12c-1.07-8-6.35-12-11.59-11.07s-7.32,5.81-6.25,13.84,6.25,12,11.6,11.07S45.2,38.49,44.14,30.51Z"/><path d="M153,18.52c7.5,0,10.71,5,10.71,10.7s-3.21,10.7-10.71,10.7-10.7-5-10.7-10.7S145.46,18.52,153,18.52Zm7.79,9.59c-.93-6.42-5.54-9.56-10.12-8.86s-6.39,4.65-5.46,11.08,5.46,9.57,10.13,8.85S161.67,34.49,160.74,28.11Z"/><path d="M6.68,19.85c2.23-.89,10.26-1.78,9.37,6.69-.45,5.35,6.24,5.35,5.35,0-.82-4.92-5.08-8-10.71-8C3.56,18.52.88,24.76.88,31.89S4.09,45.27,11.59,45.27a10.19,10.19,0,0,0,10.25-9.81H21.4C20.5,45.27,7,47.11,3.11,35,0,25.2,4.45,20.74,6.68,19.85Z"/><path d="M79.82,34.12V27c0-6.25-2.68-8-7.14-8-3.92,0-6,1.62-7,4.85C64.87,20.12,62.44,19,58.86,19c-4.13,0-6.25,1.78-7.14,5.35V18.52l-6.24.89v.44c4.46,0,4.46,0,4.46,3.57v10.7c0,9.81,0,9.81-3.57,10.71v.44h8.92v-.44c-3.57-.9-3.57-.9-3.57-10.71V29.66c0-7.13.89-9.81,7.14-9.81,4.46,0,5.35,2.68,5.35,8v6.24c0,9.81,0,9.81-3.57,10.71v.44h8.92v-.44C66,43.93,66,43.93,66,34.12V27a17.54,17.54,0,0,0-.14-2.28c.61-3.46,2.32-4.86,6.83-4.86s5.35,2.68,5.35,8v6.24c0,9.81,0,9.81-3.56,10.71v.44h8.91v-.44C79.82,43.93,79.82,43.93,79.82,34.12Z"/><path d="M112.82,34.12V.68l-6.25.89V2C111,2,111,2,111,5.58V34.12c0,9.81,0,9.81-4.46,10.71v.44h10.71v-.44C112.82,43.93,112.82,43.93,112.82,34.12Z"/><path d="M87.84,47.06V18.52l-6.24.89v.44c4.46,0,4.46,0,4.46,3.57V47.06c0,9.81,0,9.81-4.46,10.7v.45H92.3v-.45C87.84,56.87,87.84,56.87,87.84,47.06Z"/><path d="M215.83,13.61V37.69c0,4,.45,5.35,1.79,5.8s4-.45,4-2.68h.45a4.33,4.33,0,0,1-4.91,4.46c-2.67-.44-3.12-2.67-3.12-8V13.61Z"/><path d="M96.76,18.52c-5.68,0-8,3.91-8.92,7.58V39.92c1.44,3.14,5.81,5.35,9.37,5.35,9.36,0,9.81-11.11,9.81-14.27S106.13,18.52,96.76,18.52Zm-.89,25.86c-5.8-.45-7.58-3.57-8-4.91V30.11c0-2.68-.47-4.87,2.68-8,5.5-5.5,13.82.45,13.82,12.49C104.34,41.26,101.67,44.83,95.87,44.38Z"/><path d="M135.56,40.37V27.19c0-6.24-3.65-10.53-9.81-8.47-5.35,1.78-6.69,6.93-2.68,6.48s-.44-4,3.13-5.79,7.58,0,7.58,8v.65c-1.79,6.25-14.27,2.68-16.06,9.81-1.73,6.93,4.91,8.27,9.37,7.38,3.5-.7,6.69-4.7,6.69-4.7v4.7l6.24-.89v-.45C135.56,43.93,135.56,43.93,135.56,40.37ZM120.4,37c1.81-4.07,8-2.67,13.38-6.24v7.13C132.89,45.92,116.83,45,120.4,37Z"/><path d="M184.62,40.37V27.19c0-6.24-3.65-10.53-9.81-8.47-5.36,1.78-6.69,6.93-2.68,6.48s-.45-4,3.12-5.79,7.58,0,7.58,8v.65c-1.78,6.25-14.27,2.68-16.05,9.81-1.73,6.93,4.9,8.27,9.36,7.38,3.5-.7,6.69-4.7,6.69-4.7v4.7l6.25-.89v-.45C184.62,43.93,184.62,43.93,184.62,40.37ZM169.45,37c1.81-4.07,8-2.67,13.38-6.24v7.13C181.94,45.92,165.89,45,169.45,37Z"/><path d="M148.49,39s-5.32,0-5.32,3.12,4,2.68,8,1.78S165,42.15,165,49.73s-13.85,9.37-18.76,8.48c-3.61-.66-5.78-3.19-4.9-7.59a7.81,7.81,0,0,1,4.46-5.79h.44c-3.12.44-8,10.25,1.79,11.59,6.68.91,16,.45,15.63-6.69-.39-6.69-10.25-5.35-15.63-4.9s-6.74-1.34-5.81-3.57,6.25-2.68,6.25-2.68Z"/><polygon points="152.95 18.52 152.95 18.96 155.63 19.41 158.31 20.3 166.33 20.3 166.33 18.96 166.33 18.52 152.95 18.52"/><path d="M209.59,35.46c-.89,9.81-14.27,11.6-18.28-.44a20.78,20.78,0,0,1-1.14-5.8h19.42c0-7.14-5.07-10.7-10.7-10.7-7.49,0-9.81,6.24-9.81,13.37s3.21,13.38,10.7,13.38A10.2,10.2,0,0,0,210,35.46Zm-13.82-16c2.35-.47,10.7-.89,11.59,8.92h-17.2C190.31,22.48,193.54,19.85,195.77,19.41Z"/><path d="M215.83,13.16V8.26H214.5c0,4-.72,4.9-4.46,4.9v.9h11.15v-.9Z"/></g></g></svg>