<svg xmlns="http://www.w3.org/2000/svg" viewBox="0 0 409 497.99"><defs><style>.cls-1{fill:#bd9fff;}.cls-2{fill:#00df19;}.cls-3{fill:#ff5e4a;}.cls-4{fill:#ffa03f;}</style></defs><g id="Layer_2" data-name="Layer 2"><g id="Layer_1-2" data-name="Layer 1"><path class="cls-1" d="M409,251.21v13.85C307.07,233.77,36.71,355.85,40,456.26c1.13,34.51-17.65,45.55-40,40.61v-206q12.35-9,27.28-17.75c154.11-90.4,302.08-67.27,374.76-26.09C404.44,248.42,406.76,249.81,409,251.21Z"/><path class="cls-2" d="M409,237.21v10.42l-.71-.06-6.25-.51c-123.78-10-455.77-25.19-383,107.2,31,56.43,4.54,21.26-19-35.4V156.12c65.59-31.24,273.29,33.7,380.91,71.14,10,3.48,19.13,6.72,27.21,9.63Z"/><path class="cls-3" d="M409,230.7v12c-3.62-1.13-7.57-2.35-11.8-3.65C286.65,205.17-20.46,119,5,214.26c12.3,46,4.45,35.85-5,3.26V44.11A54.67,54.67,0,0,1,11,32.26C66.28-11.5,287.22,141,386.84,214.25,395.12,220.33,402.56,225.86,409,230.7Z"/><path class="cls-4" d="M409,237.94v10.19l-.71-.56q-5.09-4.06-11.09-8.56c-5-3.73-10.44-7.66-16.29-11.75C286.89,161.57,88.84,55.5,0,85.93V0C169.87,42.84,318.8,147.56,386.84,214.25c8.35,8.18,15.48,15.79,21.28,22.64Z"/></g></g></svg>