<svg xmlns="http://www.w3.org/2000/svg" viewBox="0 0 77.91 88.15"><defs><style>.cls-1{fill:#ffb564;}.cls-2{fill:#feb465;}.cls-3{fill:#fdb266;}.cls-4{fill:#fcb168;}.cls-5{fill:#fcb069;}.cls-6{fill:#fbae6a;}.cls-7{fill:#faad6b;}.cls-8{fill:#f9ab6c;}.cls-9{fill:#f8aa6e;}.cls-10{fill:#f7a96f;}.cls-11{fill:#f7a770;}.cls-12{fill:#f6a671;}.cls-13{fill:#f5a572;}.cls-14{fill:#f4a374;}.cls-15{fill:#f3a275;}.cls-16{fill:#f2a076;}.cls-17{fill:#f29f77;}.cls-18{fill:#f19e78;}.cls-19{fill:#f09c79;}.cls-20{fill:#ef9b7b;}.cls-21{fill:#ee9a7c;}.cls-22{fill:#ed987d;}.cls-23{fill:#ec977e;}.cls-24{fill:#ec967f;}.cls-25{fill:#eb9481;}.cls-26{fill:#ea9382;}.cls-27{fill:#e99183;}.cls-28{fill:#e89084;}.cls-29{fill:#e78f85;}.cls-30{fill:#e78d87;}.cls-31{fill:#e68c88;}.cls-32{fill:#e58b89;}.cls-33{fill:#e4898a;}.cls-34{fill:#e3888b;}.cls-35{fill:#e2868d;}.cls-36{fill:#e2858e;}.cls-37{fill:#e1848f;}.cls-38{fill:#e08290;}.cls-39{fill:#df8191;}.cls-40{fill:#de8093;}.cls-41{fill:#dd7e94;}.cls-42{fill:#dc7d95;}.cls-43{fill:#dc7c96;}.cls-44{fill:#db7a97;}.cls-45{fill:#da7998;}.cls-46{fill:#d9779a;}.cls-47{fill:#d8769b;}.cls-48{fill:#d7759c;}.cls-49{fill:#d7739d;}.cls-50{fill:#d6729e;}.cls-51{fill:#d571a0;}.cls-52{fill:#d46fa1;}.cls-53{fill:#d36ea2;}.cls-54{fill:#d26ca3;}.cls-55{fill:#d26ba4;}.cls-56{fill:#d16aa6;}.cls-57{fill:#d068a7;}.cls-58{fill:#cf67a8;}.cls-59{fill:#ce67aa;}.cls-60{fill:#cc68ab;}.cls-61{fill:#cb68ad;}.cls-62{fill:#c968ae;}.cls-63{fill:#c869b0;}.cls-64{fill:#c769b1;}.cls-65{fill:#c569b3;}.cls-66{fill:#c46ab4;}.cls-67{fill:#c26ab6;}.cls-68{fill:#c16ab7;}.cls-69{fill:#c06ab9;}.cls-70{fill:#be6bba;}.cls-71{fill:#bd6bbc;}.cls-72{fill:#bb6bbd;}.cls-73{fill:#ba6cbf;}.cls-74{fill:#b96cc0;}.cls-75{fill:#b76cc2;}.cls-76{fill:#b66dc3;}.cls-77{fill:#b46dc5;}.cls-78{fill:#b36dc7;}.cls-79{fill:#b26ec8;}.cls-80{fill:#b06eca;}.cls-81{fill:#af6ecb;}.cls-82{fill:#ad6fcd;}.cls-83{fill:#ac6fce;}.cls-84{fill:#ab6fd0;}.cls-85{fill:#a970d1;}.cls-86{fill:#a870d3;}.cls-87{fill:#a670d4;}.cls-88{fill:#a570d6;}.cls-89{fill:#a371d7;}.cls-90{fill:#a271d9;}.cls-91{fill:#a171da;}.cls-92{fill:#9f72dc;}.cls-93{fill:#9e72dd;}.cls-94{fill:#9c72df;}.cls-95{fill:#9b73e0;}.cls-96{fill:#9a73e2;}.cls-97{fill:#9873e4;}.cls-98{fill:#9774e5;}.cls-99{fill:#9574e7;}.cls-100{fill:#9474e8;}.cls-101{fill:#9375ea;}.cls-102{fill:#9175eb;}.cls-103{fill:#9075ed;}.cls-104{fill:#8e76ee;}.cls-105{fill:#8d76f0;}.cls-106{fill:#8c76f1;}.cls-107{fill:#8a76f3;}.cls-108{fill:#8977f4;}.cls-109{fill:#8777f6;}.cls-110{fill:#8677f7;}.cls-111{fill:#8578f9;}.cls-112{fill:#8378fa;}.cls-113{fill:#8278fc;}.cls-114{fill:#8079fd;}.cls-115{fill:#7f79ff;}.cls-116{fill:#817aff;opacity:1;}.cls-117{fill:#827aff;opacity:1;}.cls-118{fill:#847bff;opacity:1;}.cls-119{fill:#867cff;opacity:1;}.cls-120{fill:#877cff;opacity:0.99;}.cls-121{fill:#897dff;opacity:0.99;}.cls-122{fill:#8b7eff;opacity:0.99;}.cls-123{fill:#8c7eff;opacity:0.99;}.cls-124{fill:#8e7fff;opacity:0.99;}.cls-125{fill:#8f80ff;opacity:0.99;}.cls-126{fill:#9180ff;opacity:0.99;}.cls-127{fill:#9381ff;opacity:0.99;}.cls-128{fill:#9482ff;opacity:0.99;}.cls-129{fill:#9682ff;opacity:0.99;}.cls-130{fill:#9883ff;opacity:0.98;}.cls-131{fill:#9984ff;opacity:0.98;}.cls-132{fill:#9b84ff;opacity:0.98;}.cls-133{fill:#9d85ff;opacity:0.98;}.cls-134{fill:#9e86ff;opacity:0.98;}.cls-135{fill:#a086ff;opacity:0.98;}.cls-136{fill:#a287ff;opacity:0.98;}.cls-137{fill:#a388ff;opacity:0.98;}.cls-138{fill:#a588ff;opacity:0.98;}.cls-139{fill:#a789ff;opacity:0.97;}.cls-140{fill:#a88aff;opacity:0.97;}.cls-141{fill:#aa8aff;opacity:0.97;}.cls-142{fill:#ac8bff;opacity:0.97;}.cls-143{fill:#ad8cff;opacity:0.97;}.cls-144{fill:#af8cff;opacity:0.97;}.cls-145{fill:#b08dff;opacity:0.97;}.cls-146{fill:#b28eff;opacity:0.97;}.cls-147{fill:#b48eff;opacity:0.97;}.cls-148{fill:#b58fff;opacity:0.97;}.cls-149{fill:#b790ff;opacity:0.96;}.cls-150{fill:#b990ff;opacity:0.96;}.cls-151{fill:#ba91ff;opacity:0.96;}.cls-152{fill:#bc92ff;opacity:0.96;}.cls-153{fill:#be92ff;opacity:0.96;}.cls-154{fill:#bf93ff;opacity:0.96;}.cls-155{fill:#c194ff;opacity:0.96;}.cls-156{fill:#c394ff;opacity:0.96;}.cls-157{fill:#c495ff;opacity:0.96;}.cls-158{fill:#c696ff;opacity:0.95;}.cls-159{fill:#c896ff;opacity:0.95;}.cls-160{fill:#c997ff;opacity:0.95;}.cls-161{fill:#cb98ff;opacity:0.95;}.cls-162{fill:#cd98ff;opacity:0.95;}.cls-163{fill:#ce99ff;opacity:0.95;}.cls-164{fill:#d09aff;opacity:0.95;}.cls-165{fill:#d19aff;opacity:0.95;}.cls-166{fill:#d39bff;opacity:0.95;}.cls-167{fill:#d59cff;opacity:0.95;}.cls-168{fill:#d69cff;opacity:0.94;}.cls-169{fill:#d89dff;opacity:0.94;}.cls-170{fill:#da9eff;opacity:0.94;}.cls-171{fill:#db9eff;opacity:0.94;}.cls-172{fill:#dd9fff;opacity:0.94;}</style></defs><g id="Layer_2" data-name="Layer 2"><g id="Layer_1-2" data-name="Layer 1"><circle class="cls-1" cx="18.68" cy="78.04" r="10.11"/><circle class="cls-2" cx="18.66" cy="78.02" r="10.11"/><circle class="cls-3" cx="18.59" cy="77.97" r="10.11"/><circle class="cls-4" cx="18.49" cy="77.88" r="10.11"/><circle class="cls-5" cx="18.35" cy="77.77" r="10.11"/><circle class="cls-6" cx="18.18" cy="77.62" r="10.11"/><circle class="cls-7" cx="17.97" cy="77.44" r="10.11"/><circle class="cls-8" cx="17.74" cy="77.24" r="10.11"/><circle class="cls-9" cx="17.48" cy="77.01" r="10.11"/><circle class="cls-10" cx="17.2" cy="76.76" r="10.11"/><circle class="cls-11" cx="16.89" cy="76.49" r="10.11"/><circle class="cls-12" cx="16.57" cy="76.2" r="10.11"/><circle class="cls-13" cx="16.23" cy="75.89" r="10.11"/><circle class="cls-14" cx="15.88" cy="75.56" r="10.11"/><circle class="cls-15" cx="15.52" cy="75.21" r="10.11"/><circle class="cls-16" cx="15.15" cy="74.86" r="10.11"/><circle class="cls-17" cx="14.78" cy="74.49" r="10.11"/><circle class="cls-18" cx="14.4" cy="74.11" r="10.11"/><circle class="cls-19" cx="14.02" cy="73.72" r="10.11"/><circle class="cls-20" cx="13.65" cy="73.32" r="10.11"/><circle class="cls-21" cx="13.28" cy="72.92" r="10.11"/><circle class="cls-22" cx="12.92" cy="72.52" r="10.11"/><circle class="cls-23" cx="12.57" cy="72.11" r="10.11"/><circle class="cls-24" cx="12.23" cy="71.7" r="10.11"/><circle class="cls-25" cx="11.91" cy="71.3" r="10.11"/><circle class="cls-26" cx="11.6" cy="70.89" r="10.11"/><circle class="cls-27" cx="11.32" cy="70.49" r="10.11"/><circle class="cls-28" cx="11.06" cy="70.1" r="10.11"/><circle class="cls-29" cx="10.82" cy="69.72" r="10.11"/><circle class="cls-30" cx="10.62" cy="69.34" r="10.11"/><circle class="cls-31" cx="10.44" cy="68.97" r="10.11"/><circle class="cls-32" cx="10.3" cy="68.62" r="10.11"/><circle class="cls-33" cx="10.2" cy="68.28" r="10.11"/><circle class="cls-34" cx="10.13" cy="67.96" r="10.11"/><circle class="cls-35" cx="10.11" cy="67.65" r="10.11"/><circle class="cls-36" cx="10.13" cy="67.36" r="10.11"/><circle class="cls-37" cx="10.19" cy="67.1" r="10.11"/><circle class="cls-38" cx="10.31" cy="66.85" r="10.11"/><circle class="cls-39" cx="10.48" cy="66.63" r="10.11"/><circle class="cls-40" cx="10.7" cy="66.44" r="10.11"/><circle class="cls-41" cx="10.98" cy="66.27" r="10.11"/><circle class="cls-42" cx="11.32" cy="66.13" r="10.11"/><circle class="cls-43" cx="11.72" cy="66.02" r="10.11"/><circle class="cls-44" cx="12.19" cy="65.95" r="10.11"/><circle class="cls-45" cx="12.73" cy="65.91" r="10.11"/><circle class="cls-46" cx="13.33" cy="65.9" r="10.11"/><circle class="cls-47" cx="14.01" cy="65.93" r="10.11"/><circle class="cls-48" cx="14.76" cy="66" r="10.11"/><circle class="cls-49" cx="15.59" cy="66.11" r="10.11"/><circle class="cls-50" cx="16.51" cy="66.26" r="10.11"/><circle class="cls-51" cx="17.5" cy="66.45" r="10.11"/><circle class="cls-52" cx="18.58" cy="66.69" r="10.11"/><circle class="cls-53" cx="19.75" cy="66.98" r="10.11"/><circle class="cls-54" cx="21.01" cy="67.31" r="10.11"/><circle class="cls-55" cx="22.37" cy="67.69" r="10.11"/><circle class="cls-56" cx="23.82" cy="68.13" r="10.11"/><circle class="cls-57" cx="25.37" cy="68.62" r="10.11"/><circle class="cls-58" cx="27.02" cy="69.16" r="10.11"/><circle class="cls-59" cx="28.63" cy="69.68" r="10.18"/><circle class="cls-60" cx="30.05" cy="70.08" r="10.25"/><circle class="cls-61" cx="31.29" cy="70.37" r="10.33"/><circle class="cls-62" cx="32.36" cy="70.56" r="10.4"/><circle class="cls-63" cx="33.27" cy="70.65" r="10.47"/><circle class="cls-64" cx="34.02" cy="70.64" r="10.55"/><circle class="cls-65" cx="34.63" cy="70.54" r="10.62"/><circle class="cls-66" cx="35.09" cy="70.36" r="10.69"/><circle class="cls-67" cx="35.41" cy="70.09" r="10.77"/><circle class="cls-68" cx="35.61" cy="69.75" r="10.84"/><circle class="cls-69" cx="35.7" cy="69.33" r="10.91"/><circle class="cls-70" cx="35.67" cy="68.85" r="10.99"/><circle class="cls-71" cx="35.53" cy="68.3" r="11.06"/><circle class="cls-72" cx="35.3" cy="67.68" r="11.13"/><circle class="cls-73" cx="34.98" cy="67.02" r="11.21"/><circle class="cls-74" cx="34.57" cy="66.3" r="11.28"/><circle class="cls-75" cx="34.1" cy="65.54" r="11.35"/><circle class="cls-76" cx="33.55" cy="64.73" r="11.43"/><circle class="cls-77" cx="32.95" cy="63.88" r="11.5"/><circle class="cls-78" cx="32.29" cy="63" r="11.57"/><circle class="cls-79" cx="31.59" cy="62.1" r="11.65"/><circle class="cls-80" cx="30.85" cy="61.16" r="11.72"/><circle class="cls-81" cx="30.08" cy="60.21" r="11.79"/><circle class="cls-82" cx="29.29" cy="59.24" r="11.87"/><circle class="cls-83" cx="28.49" cy="58.26" r="11.94"/><circle class="cls-84" cx="27.67" cy="57.28" r="12.01"/><circle class="cls-85" cx="26.86" cy="56.29" r="12.09"/><circle class="cls-86" cx="26.05" cy="55.3" r="12.16"/><circle class="cls-87" cx="25.26" cy="54.31" r="12.23"/><circle class="cls-88" cx="24.49" cy="53.34" r="12.31"/><circle class="cls-89" cx="23.75" cy="52.39" r="12.38"/><circle class="cls-90" cx="23.05" cy="51.45" r="12.45"/><circle class="cls-91" cx="22.39" cy="50.54" r="12.53"/><circle class="cls-92" cx="21.79" cy="49.65" r="12.6"/><circle class="cls-93" cx="21.24" cy="48.8" r="12.67"/><circle class="cls-94" cx="20.76" cy="47.98" r="12.75"/><circle class="cls-95" cx="20.35" cy="47.21" r="12.82"/><circle class="cls-96" cx="20.03" cy="46.48" r="12.9"/><circle class="cls-97" cx="19.79" cy="45.8" r="12.97"/><circle class="cls-98" cx="19.65" cy="45.18" r="13.04"/><circle class="cls-99" cx="19.62" cy="44.62" r="13.12"/><circle class="cls-100" cx="19.7" cy="44.12" r="13.19"/><circle class="cls-101" cx="19.89" cy="43.68" r="13.26"/><circle class="cls-102" cx="20.21" cy="43.32" r="13.34"/><circle class="cls-103" cx="20.67" cy="43.04" r="13.41"/><circle class="cls-104" cx="21.26" cy="42.84" r="13.48"/><circle class="cls-105" cx="22.01" cy="42.72" r="13.56"/><circle class="cls-106" cx="22.91" cy="42.7" r="13.63"/><circle class="cls-107" cx="23.98" cy="42.76" r="13.7"/><circle class="cls-108" cx="25.21" cy="42.93" r="13.78"/><circle class="cls-109" cx="26.63" cy="43.2" r="13.85"/><circle class="cls-110" cx="28.23" cy="43.58" r="13.92"/><circle class="cls-111" cx="30.02" cy="44.07" r="14"/><circle class="cls-112" cx="32.01" cy="44.67" r="14.07"/><circle class="cls-113" cx="34.21" cy="45.4" r="14.14"/><circle class="cls-114" cx="36.63" cy="46.25" r="14.22"/><circle class="cls-115" cx="39.27" cy="47.24" r="14.29"/><circle class="cls-116" cx="41.93" cy="48.23" r="14.42"/><circle class="cls-117" cx="44.38" cy="49.1" r="14.54"/><circle class="cls-118" cx="46.65" cy="49.86" r="14.67"/><circle class="cls-119" cx="48.72" cy="50.5" r="14.8"/><circle class="cls-120" cx="50.62" cy="51.04" r="14.93"/><circle class="cls-121" cx="52.34" cy="51.48" r="15.05"/><circle class="cls-122" cx="53.89" cy="51.82" r="15.18"/><circle class="cls-123" cx="55.28" cy="52.06" r="15.31"/><circle class="cls-124" cx="56.51" cy="52.21" r="15.43"/><circle class="cls-125" cx="57.58" cy="52.27" r="15.56"/><circle class="cls-126" cx="58.51" cy="52.25" r="15.69"/><circle class="cls-127" cx="59.29" cy="52.14" r="15.82"/><circle class="cls-128" cx="59.93" cy="51.96" r="15.94"/><circle class="cls-129" cx="60.44" cy="51.7" r="16.07"/><circle class="cls-130" cx="60.83" cy="51.38" r="16.2"/><circle class="cls-131" cx="61.09" cy="50.98" r="16.32"/><circle class="cls-132" cx="61.24" cy="50.52" r="16.45"/><circle class="cls-133" cx="61.28" cy="50.01" r="16.58"/><circle class="cls-134" cx="61.21" cy="49.43" r="16.71"/><circle class="cls-135" cx="61.04" cy="48.8" r="16.83"/><circle class="cls-136" cx="60.78" cy="48.13" r="16.96"/><circle class="cls-137" cx="60.42" cy="47.41" r="17.09"/><circle class="cls-138" cx="59.99" cy="46.64" r="17.21"/><circle class="cls-139" cx="59.48" cy="45.84" r="17.34"/><circle class="cls-140" cx="58.89" cy="45.01" r="17.47"/><circle class="cls-141" cx="58.24" cy="44.14" r="17.6"/><circle class="cls-142" cx="57.52" cy="43.25" r="17.72"/><circle class="cls-143" cx="56.75" cy="42.33" r="17.85"/><circle class="cls-144" cx="55.93" cy="41.39" r="17.98"/><circle class="cls-145" cx="55.06" cy="40.43" r="18.1"/><circle class="cls-146" cx="54.15" cy="39.47" r="18.23"/><circle class="cls-147" cx="53.21" cy="38.49" r="18.36"/><circle class="cls-148" cx="52.23" cy="37.51" r="18.49"/><circle class="cls-149" cx="51.24" cy="36.52" r="18.61"/><circle class="cls-150" cx="50.22" cy="35.54" r="18.74"/><circle class="cls-151" cx="49.19" cy="34.56" r="18.87"/><circle class="cls-152" cx="48.16" cy="33.59" r="18.99"/><circle class="cls-153" cx="47.12" cy="32.63" r="19.12"/><circle class="cls-154" cx="46.08" cy="31.69" r="19.25"/><circle class="cls-155" cx="45.06" cy="30.76" r="19.38"/><circle class="cls-156" cx="44.05" cy="29.86" r="19.5"/><circle class="cls-157" cx="43.05" cy="28.99" r="19.63"/><circle class="cls-158" cx="42.08" cy="28.15" r="19.76"/><circle class="cls-159" cx="41.15" cy="27.34" r="19.88"/><circle class="cls-160" cx="40.24" cy="26.57" r="20.01"/><circle class="cls-161" cx="39.38" cy="25.84" r="20.14"/><circle class="cls-162" cx="38.57" cy="25.15" r="20.27"/><circle class="cls-163" cx="37.8" cy="24.51" r="20.39"/><circle class="cls-164" cx="37.1" cy="23.93" r="20.52"/><circle class="cls-165" cx="36.46" cy="23.4" r="20.65"/><circle class="cls-166" cx="35.88" cy="22.92" r="20.77"/><circle class="cls-167" cx="35.38" cy="22.52" r="20.9"/><circle class="cls-168" cx="34.96" cy="22.17" r="21.03"/><circle class="cls-169" cx="34.62" cy="21.9" r="21.16"/><circle class="cls-170" cx="34.37" cy="21.7" r="21.28"/><circle class="cls-171" cx="34.22" cy="21.58" r="21.41"/><circle class="cls-172" cx="34.17" cy="21.54" r="21.54"/></g></g></svg>