<svg xmlns="http://www.w3.org/2000/svg" viewBox="0 0 698 655"><defs><style>.cls-1{fill:none;}.cls-2{fill:#bd9fff;}.cls-3{fill:#00df19;}.cls-4{fill:#ff5e4a;}.cls-5{fill:#ffa03f;}</style></defs><g id="Layer_2" data-name="Layer 2"><g id="Layer_1-2" data-name="Layer 1"><rect class="cls-1" width="698" height="655"/><path class="cls-2" d="M656,6c-.33.6-.66,1.21-1,1.81C570.82,160.61,427.49,388.6,277.62,655H0V356.07c81.14-48.26,160.31-89.19,235-125.77,43.16-21.14,84.84-40.82,124.55-59.61l.05,0c104.16-49.3,194.82-92.53,263.35-140Q639.91,18.92,655,6.8q.46-.36.93-.75L656,6Z"/><path class="cls-3" d="M656,6a.08.08,0,0,1,0,0l-.93.68c-3.24,2.37-14.32,10.51-32,23.92C533.44,98.43,274.34,300.73,0,572.55V363.82c83.18-48.34,162.33-93.14,235-133.52C472.28,98.49,640.61,13.72,655,6.51l.9-.46Z"/><path class="cls-4" d="M656,6l-.07,0-.9.47c-11.77,6.14-126.52,66.26-295.38,164.14l-.05,0C256.24,230.59,132.65,304.62,0,389.08V165.33C362.77,68,636.49,10.1,655,6.21Z"/><path class="cls-5" d="M656,6h0l-1,.33C553.2,41.65,304,133.79,0,265.62V107.44C323.86,32.85,567,2.15,655,6Z"/></g></g></svg>