<svg xmlns="http://www.w3.org/2000/svg" xmlns:xlink="http://www.w3.org/1999/xlink" viewBox="0 0 600 600"><defs><style>.cls-1,.cls-14,.cls-2{fill:none;}.cls-2{stroke:#591fff;}.cls-14,.cls-2{stroke-linejoin:round;stroke-width:10px;}.cls-3{fill:#ff0060;}.cls-4{fill:#171b2d;}.cls-5{fill:#fff;}.cls-6{fill:url(#linear-gradient);}.cls-7{fill:url(#linear-gradient-2);}.cls-8{fill:url(#linear-gradient-3);}.cls-9{fill:#b3b3b3;}.cls-10{fill:url(#linear-gradient-4);}.cls-11{fill:url(#linear-gradient-5);}.cls-12{fill:url(#linear-gradient-6);}.cls-13{fill:#44c9db;}.cls-14{stroke:#ff0060;}.cls-15{fill:#ffb45f;}.cls-16{fill:#f18224;}.cls-17{fill:#fffcbf;}.cls-18{fill:#383838;}</style><linearGradient id="linear-gradient" x1="95.23" y1="-11061.15" x2="95.23" y2="-11072.29" gradientTransform="matrix(1, 0, 0, -1, 0, -10527)" gradientUnits="userSpaceOnUse"><stop offset="0" stop-color="#fff"/><stop offset="0.58" stop-color="#e6e6e6"/><stop offset="0.77" stop-color="#eee"/><stop offset="0.99" stop-color="#fff"/></linearGradient><linearGradient id="linear-gradient-2" x1="95.22" y1="600" x2="95.22" y2="589.83" gradientTransform="matrix(1, 0, 0, 1, 0, 0)" xlink:href="#linear-gradient"/><linearGradient id="linear-gradient-3" x1="67.56" y1="564.29" x2="73.09" y2="564.29" gradientUnits="userSpaceOnUse"><stop offset="0.11" stop-color="#ccc"/><stop offset="0.4" stop-color="#eee"/><stop offset="0.59" stop-color="#fff"/></linearGradient><linearGradient id="linear-gradient-4" x1="86" y1="564.29" x2="91.54" y2="564.29" xlink:href="#linear-gradient-3"/><linearGradient id="linear-gradient-5" x1="104.45" y1="564.29" x2="109.98" y2="564.29" xlink:href="#linear-gradient-3"/><linearGradient id="linear-gradient-6" x1="122.9" y1="564.29" x2="128.43" y2="564.29" xlink:href="#linear-gradient-3"/></defs><g id="Layer_2" data-name="Layer 2"><g id="Layer_1-2" data-name="Layer 1"><rect class="cls-1" width="600" height="600"/><path class="cls-2" d="M0,478.5H450.35c38.07,0,48.65,10.58,48.65,48.65V600"/><path class="cls-3" d="M113.25,366c0,.66,0,1.32,0,2-9.77.35-21,.43-33.89.43-12.74,0-23.85-.08-33.54-.42,0-.66,0-1.33,0-2,0-37.59,11.32-37.7,33.76-37.7S113.25,328.37,113.25,366Z"/><path class="cls-4" d="M159,411.91v164.7a126.93,126.93,0,0,1-1,16.93c-.18,1.29-.39,2.54-.62,3.73-.18.94-.38,1.85-.59,2.73H0V363.26H110.35l2.88,0C149,363.82,159,374.82,159,411.91Z"/><path class="cls-5" d="M159,537.87v3.7H120.7a17.07,17.07,0,0,1,1.34-3.7Z"/><path class="cls-5" d="M158,593.54c-.18,1.29-.39,2.54-.62,3.73h-34.8a24.11,24.11,0,0,1-1.53-3.73Z"/><path class="cls-6" d="M131.2,545.29H59.26c-2.31,0-2.77-.46-2.77-2.78v-5.57c0-2.32.46-2.79,2.77-2.79H131.2c2.3,0,2.76.47,2.76,2.79v5.57C134,544.83,133.5,545.29,131.2,545.29Z"/><path class="cls-7" d="M134,592.62v5.56a4.77,4.77,0,0,1-.24,1.82h-77a4.58,4.58,0,0,1-.24-1.82v-5.56c0-2.32.46-2.79,2.77-2.79H131.2C133.5,589.83,134,590.3,134,592.62Z"/><path class="cls-5" d="M62,531.37v2.78H59.26C61.56,534.15,62,533.69,62,531.37Z"/><path class="cls-5" d="M80.47,531.37v2.78H77.7C80,534.15,80.47,533.69,80.47,531.37Z"/><path class="cls-5" d="M73.09,531.37v2.78h2.77C73.55,534.15,73.09,533.69,73.09,531.37Z"/><path class="cls-5" d="M98.92,531.37v2.78H96.15C98.45,534.15,98.92,533.69,98.92,531.37Z"/><path class="cls-5" d="M91.54,531.37v2.78H94.3C92,534.15,91.54,533.69,91.54,531.37Z"/><path class="cls-5" d="M117.36,531.37v2.78h-2.77C116.9,534.15,117.36,533.69,117.36,531.37Z"/><path class="cls-5" d="M110,531.37v2.78h2.77C110.44,534.15,110,533.69,110,531.37Z"/><path class="cls-5" d="M117.36,548.07v-2.78h-2.77C116.9,545.29,117.36,545.75,117.36,548.07Z"/><path class="cls-5" d="M110,548.07v-2.78h2.77C110.44,545.29,110,545.75,110,548.07Z"/><path class="cls-5" d="M98.92,548.07v-2.78H96.15C98.45,545.29,98.92,545.75,98.92,548.07Z"/><path class="cls-5" d="M91.54,548.07v-2.78H94.3C92,545.29,91.54,545.75,91.54,548.07Z"/><path class="cls-5" d="M80.47,548.07v-2.78H77.7C80,545.29,80.47,545.75,80.47,548.07Z"/><path class="cls-5" d="M73.09,548.07v-2.78h2.77C73.55,545.29,73.09,545.75,73.09,548.07Z"/><path class="cls-5" d="M80.47,587.05v2.78H77.7C80,589.83,80.47,589.37,80.47,587.05Z"/><path class="cls-5" d="M73.09,587.05v2.78h2.77C73.55,589.83,73.09,589.37,73.09,587.05Z"/><path class="cls-5" d="M98.92,587.05v2.78H96.15C98.45,589.83,98.92,589.37,98.92,587.05Z"/><path class="cls-5" d="M91.54,587.05v2.78H94.3C92,589.83,91.54,589.37,91.54,587.05Z"/><path class="cls-5" d="M117.36,587.05v2.78h-2.77C116.9,589.83,117.36,589.37,117.36,587.05Z"/><path class="cls-5" d="M110,587.05v2.78h2.77C110.44,589.83,110,589.37,110,587.05Z"/><path class="cls-5" d="M62,548.07v-2.78H59.26C61.56,545.29,62,545.75,62,548.07Z"/><path class="cls-5" d="M128.43,587.05v2.78h2.77C128.89,589.83,128.43,589.37,128.43,587.05Z"/><path class="cls-5" d="M128.43,531.37v2.78h2.77C128.89,534.15,128.43,533.69,128.43,531.37Z"/><path class="cls-5" d="M128.43,548.07v-2.78h2.77C128.89,545.29,128.43,545.75,128.43,548.07Z"/><path class="cls-5" d="M62,587.05v2.78H59.26C61.56,589.83,62,589.37,62,587.05Z"/><path class="cls-5" d="M73.09,531.37V600H62V531.37c0-2.32.46-2.78,2.77-2.78h5.53C72.63,528.59,73.09,529.05,73.09,531.37Z"/><path class="cls-8" d="M73.09,531.37V600H67.56V528.59h2.76C72.63,528.59,73.09,529.05,73.09,531.37Z"/><rect class="cls-9" x="67.1" y="528.59" width="0.92" height="71.41"/><path class="cls-5" d="M91.54,531.37V600H80.47V531.37c0-2.32.46-2.78,2.77-2.78h5.53C91.08,528.59,91.54,529.05,91.54,531.37Z"/><path class="cls-10" d="M91.54,531.37V600H86V528.59h2.77C91.08,528.59,91.54,529.05,91.54,531.37Z"/><rect class="cls-9" x="85.54" y="528.59" width="0.92" height="71.41"/><path class="cls-5" d="M110,531.37V600H98.92V531.37c0-2.32.46-2.78,2.76-2.78h5.54C109.52,528.59,110,529.05,110,531.37Z"/><path class="cls-11" d="M110,531.37V600h-5.53V528.59h2.77C109.52,528.59,110,529.05,110,531.37Z"/><rect class="cls-9" x="103.99" y="528.59" width="0.92" height="71.41"/><path class="cls-5" d="M128.43,531.37V600H117.36V531.37c0-2.2.41-2.73,2.42-2.77h5.88C128,528.59,128.43,529.05,128.43,531.37Z"/><path class="cls-12" d="M128.43,531.37V600H122.9V528.59h2.76C128,528.59,128.43,529.05,128.43,531.37Z"/><rect class="cls-9" x="122.43" y="528.59" width="0.93" height="71.41"/><path class="cls-13" d="M66.64,528.59s-3.54,26.38,0,29.13,7.09,2.75,7.09-.79,14.17,5.49,14.17-1,17.72,7.82,17.72,0,17.71,5.81,14.17-3.91,0-23.44,0-23.44-32.33-1.33-38.53-1.33A115.3,115.3,0,0,0,66.64,528.59Z"/><path class="cls-14" d="M286,272.5H127.65C89.58,272.5,79,283.08,79,321.15V355.5"/><path class="cls-3" d="M246.5,295.19c0,.67,0,1.32,0,2,9.7.35,20.84.43,33.63.43,12.64,0,23.68-.08,33.29-.42,0-.66,0-1.32,0-2,0-37.58-11.23-37.69-33.5-37.69S246.5,257.61,246.5,295.19Z"/><path class="cls-15" d="M319,393.5H241v-7c0-30-26-19-26-46v-1.35c0-38.07,10.62-48.65,48.82-48.65h32.36c38.2,0,48.82,10.58,48.82,48.65v1.35c0,27-26,16-26,46Z"/><path class="cls-15" d="M345,577.5v1.35A109,109,0,0,1,343.31,600H216.69A109,109,0,0,1,215,578.85V577.5c0-27,26-16,26-46v-7h78v7C319,561.5,345,550.5,345,577.5Z"/><rect class="cls-16" x="241" y="393.5" width="78" height="23"/><rect class="cls-17" x="241" y="416.5" width="78" height="35"/><rect class="cls-16" x="241" y="483.5" width="78" height="41"/><rect class="cls-18" x="241" y="451.5" width="78" height="36"/></g></g></svg>