<svg xmlns="http://www.w3.org/2000/svg" viewBox="0 0 897.3 581.24"><defs><style>.cls-1{fill:#ffb564;}.cls-2{fill:#feb465;}.cls-3{fill:#fdb266;}.cls-4{fill:#fcb168;}.cls-5{fill:#fcb069;}.cls-6{fill:#fbae6a;}.cls-7{fill:#faad6b;}.cls-8{fill:#f9ab6c;}.cls-9{fill:#f8aa6e;}.cls-10{fill:#f7a96f;}.cls-11{fill:#f7a770;}.cls-12{fill:#f6a671;}.cls-13{fill:#f5a572;}.cls-14{fill:#f4a374;}.cls-15{fill:#f3a275;}.cls-16{fill:#f2a076;}.cls-17{fill:#f29f77;}.cls-18{fill:#f19e78;}.cls-19{fill:#f09c79;}.cls-20{fill:#ef9b7b;}.cls-21{fill:#ee9a7c;}.cls-22{fill:#ed987d;}.cls-23{fill:#ec977e;}.cls-24{fill:#ec967f;}.cls-25{fill:#eb9481;}.cls-26{fill:#ea9382;}.cls-27{fill:#e99183;}.cls-28{fill:#e89084;}.cls-29{fill:#e78f85;}.cls-30{fill:#e78d87;}.cls-31{fill:#e68c88;}.cls-32{fill:#e58b89;}.cls-33{fill:#e4898a;}.cls-34{fill:#e3888b;}.cls-35{fill:#e2868d;}.cls-36{fill:#e2858e;}.cls-37{fill:#e1848f;}.cls-38{fill:#e08290;}.cls-39{fill:#df8191;}.cls-40{fill:#de8093;}.cls-41{fill:#dd7e94;}.cls-42{fill:#dc7d95;}.cls-43{fill:#dc7c96;}.cls-44{fill:#db7a97;}.cls-45{fill:#da7998;}.cls-46{fill:#d9779a;}.cls-47{fill:#d8769b;}.cls-48{fill:#d7759c;}.cls-49{fill:#d7739d;}.cls-50{fill:#d6729e;}.cls-51{fill:#d571a0;}.cls-52{fill:#d46fa1;}.cls-53{fill:#d36ea2;}.cls-54{fill:#d26ca3;}.cls-55{fill:#d26ba4;}.cls-56{fill:#d16aa6;}.cls-57{fill:#d068a7;}.cls-58{fill:#cf67a8;}.cls-59{fill:#ce67aa;}.cls-60{fill:#cc68ab;}.cls-61{fill:#cb68ad;}.cls-62{fill:#c968ae;}.cls-63{fill:#c869b0;}.cls-64{fill:#c769b1;}.cls-65{fill:#c569b3;}.cls-66{fill:#c46ab4;}.cls-67{fill:#c26ab6;}.cls-68{fill:#c16ab7;}.cls-69{fill:#c06ab9;}.cls-70{fill:#be6bba;}.cls-71{fill:#bd6bbc;}.cls-72{fill:#bb6bbd;}.cls-73{fill:#ba6cbf;}.cls-74{fill:#b96cc0;}.cls-75{fill:#b76cc2;}.cls-76{fill:#b66dc3;}.cls-77{fill:#b46dc5;}.cls-78{fill:#b36dc7;}.cls-79{fill:#b26ec8;}.cls-80{fill:#b06eca;}.cls-81{fill:#af6ecb;}.cls-82{fill:#ad6fcd;}.cls-83{fill:#ac6fce;}.cls-84{fill:#ab6fd0;}.cls-85{fill:#a970d1;}.cls-86{fill:#a870d3;}.cls-87{fill:#a670d4;}.cls-88{fill:#a570d6;}.cls-89{fill:#a371d7;}.cls-90{fill:#a271d9;}.cls-91{fill:#a171da;}.cls-92{fill:#9f72dc;}.cls-93{fill:#9e72dd;}.cls-94{fill:#9c72df;}.cls-95{fill:#9b73e0;}.cls-96{fill:#9a73e2;}.cls-97{fill:#9873e4;}.cls-98{fill:#9774e5;}.cls-99{fill:#9574e7;}.cls-100{fill:#9474e8;}.cls-101{fill:#9375ea;}.cls-102{fill:#9175eb;}.cls-103{fill:#9075ed;}.cls-104{fill:#8e76ee;}.cls-105{fill:#8d76f0;}.cls-106{fill:#8c76f1;}.cls-107{fill:#8a76f3;}.cls-108{fill:#8977f4;}.cls-109{fill:#8777f6;}.cls-110{fill:#8677f7;}.cls-111{fill:#8578f9;}.cls-112{fill:#8378fa;}.cls-113{fill:#8278fc;}.cls-114{fill:#8079fd;}.cls-115{fill:#7f79ff;}.cls-116{fill:#817aff;opacity:1;}.cls-117{fill:#827aff;opacity:1;}.cls-118{fill:#847bff;opacity:1;}.cls-119{fill:#867cff;opacity:1;}.cls-120{fill:#877cff;opacity:0.99;}.cls-121{fill:#897dff;opacity:0.99;}.cls-122{fill:#8b7eff;opacity:0.99;}.cls-123{fill:#8c7eff;opacity:0.99;}.cls-124{fill:#8e7fff;opacity:0.99;}.cls-125{fill:#8f80ff;opacity:0.99;}.cls-126{fill:#9180ff;opacity:0.99;}.cls-127{fill:#9381ff;opacity:0.99;}.cls-128{fill:#9482ff;opacity:0.99;}.cls-129{fill:#9682ff;opacity:0.99;}.cls-130{fill:#9883ff;opacity:0.98;}.cls-131{fill:#9984ff;opacity:0.98;}.cls-132{fill:#9b84ff;opacity:0.98;}.cls-133{fill:#9d85ff;opacity:0.98;}.cls-134{fill:#9e86ff;opacity:0.98;}.cls-135{fill:#a086ff;opacity:0.98;}.cls-136{fill:#a287ff;opacity:0.98;}.cls-137{fill:#a388ff;opacity:0.98;}.cls-138{fill:#a588ff;opacity:0.98;}.cls-139{fill:#a789ff;opacity:0.97;}.cls-140{fill:#a88aff;opacity:0.97;}.cls-141{fill:#aa8aff;opacity:0.97;}.cls-142{fill:#ac8bff;opacity:0.97;}.cls-143{fill:#ad8cff;opacity:0.97;}.cls-144{fill:#af8cff;opacity:0.97;}.cls-145{fill:#b08dff;opacity:0.97;}.cls-146{fill:#b28eff;opacity:0.97;}.cls-147{fill:#b48eff;opacity:0.97;}.cls-148{fill:#b58fff;opacity:0.97;}.cls-149{fill:#b790ff;opacity:0.96;}.cls-150{fill:#b990ff;opacity:0.96;}.cls-151{fill:#ba91ff;opacity:0.96;}.cls-152{fill:#bc92ff;opacity:0.96;}.cls-153{fill:#be92ff;opacity:0.96;}.cls-154{fill:#bf93ff;opacity:0.96;}.cls-155{fill:#c194ff;opacity:0.96;}.cls-156{fill:#c394ff;opacity:0.96;}.cls-157{fill:#c495ff;opacity:0.96;}.cls-158{fill:#c696ff;opacity:0.95;}.cls-159{fill:#c896ff;opacity:0.95;}.cls-160{fill:#c997ff;opacity:0.95;}.cls-161{fill:#cb98ff;opacity:0.95;}.cls-162{fill:#cd98ff;opacity:0.95;}.cls-163{fill:#ce99ff;opacity:0.95;}.cls-164{fill:#d09aff;opacity:0.95;}.cls-165{fill:#d19aff;opacity:0.95;}.cls-166{fill:#d39bff;opacity:0.95;}.cls-167{fill:#d59cff;opacity:0.95;}.cls-168{fill:#d69cff;opacity:0.94;}.cls-169{fill:#d89dff;opacity:0.94;}.cls-170{fill:#da9eff;opacity:0.94;}.cls-171{fill:#db9eff;opacity:0.94;}.cls-172{fill:#dd9fff;opacity:0.94;}</style></defs><g id="Layer_2" data-name="Layer 2"><g id="Layer_1-2" data-name="Layer 1"><path d="M0,432.38H30.29l32,78.06h1.36l32-78.06h30.29V548.56H102.12V472.94h-1L71.08,548H54.86L24.79,472.66h-1v75.9H0Z"/><path d="M168.77,516.68l31.37-55.26H224v87.14h-23V493.14l-31.26,55.42h-24V461.42h23.09Z"/><path d="M243.32,548.56V461.42h24.16v33.82h6.81L298,461.42h28.37l-30.8,43.23,31.14,43.91H298l-21.5-30.92h-9v30.92Z"/><path d="M336.86,581.24V461.42h23.83v14.64h1.08a32.31,32.31,0,0,1,4.62-7.18,24.32,24.32,0,0,1,7.94-6.12,27,27,0,0,1,12.23-2.47,32.9,32.9,0,0,1,17.59,5q8.06,5,12.87,14.92t4.83,24.94q0,14.58-4.68,24.59a35,35,0,0,1-12.71,15.15,32.65,32.65,0,0,1-18,5.13,27.73,27.73,0,0,1-11.94-2.32,24.56,24.56,0,0,1-8-5.88,29.16,29.16,0,0,1-4.76-7.17H361v46.63ZM360.52,505a38.74,38.74,0,0,0,2.16,13.56,19.78,19.78,0,0,0,6.24,9,16.93,16.93,0,0,0,19.91,0,20.19,20.19,0,0,0,6.21-9.08A38.92,38.92,0,0,0,397.17,505a38.46,38.46,0,0,0-2.1-13.27,19.75,19.75,0,0,0-6.18-9,17.31,17.31,0,0,0-20-.12,19.37,19.37,0,0,0-6.21,8.85A38.23,38.23,0,0,0,360.52,505Z"/><path d="M477.27,550.26q-13.22,0-22.83-5.64a38.15,38.15,0,0,1-14.84-15.77q-5.22-10.12-5.22-23.52t5.22-23.62a38.18,38.18,0,0,1,14.84-15.78q9.62-5.64,22.83-5.64t22.84,5.64a38.15,38.15,0,0,1,14.83,15.78q5.22,10.13,5.22,23.62t-5.22,23.52a38.13,38.13,0,0,1-14.83,15.77Q490.5,550.26,477.27,550.26Zm.11-18.72a15,15,0,0,0,10.05-3.43,21.16,21.16,0,0,0,6.09-9.39,45.24,45.24,0,0,0,0-27.12,21.34,21.34,0,0,0-6.09-9.41,14.88,14.88,0,0,0-10.05-3.46,15.26,15.26,0,0,0-10.18,3.46A21,21,0,0,0,461,491.6a45.45,45.45,0,0,0,0,27.12,20.8,20.8,0,0,0,6.18,9.39A15.35,15.35,0,0,0,477.38,531.54Z"/><path d="M530.82,548.56l-.11-19.17h2.89a9.25,9.25,0,0,0,5.31-1.51,10.88,10.88,0,0,0,3.71-4.9,37.12,37.12,0,0,0,2.33-9.05A124,124,0,0,0,546.08,500l1.42-38.58h66.26v87.14h-23V480.43h-21.5L567.87,507a88.86,88.86,0,0,1-2.64,18.83,38,38,0,0,1-5.87,12.91,23.05,23.05,0,0,1-9,7.4,29.5,29.5,0,0,1-12.26,2.38Z"/><path d="M657.39,550.21a36.09,36.09,0,0,1-14.86-2.92,23.48,23.48,0,0,1-10.3-8.68q-3.78-5.76-3.77-14.39A25.35,25.35,0,0,1,631.12,512a21.6,21.6,0,0,1,7.26-7.94,35.15,35.15,0,0,1,10.47-4.54,79.57,79.57,0,0,1,12.34-2.16q7.6-.79,12.25-1.5a17,17,0,0,0,6.75-2.13,4.73,4.73,0,0,0,2.1-4.2v-.34q0-5.39-3.37-8.34t-9.56-2.95q-6.52,0-10.38,2.87a13.45,13.45,0,0,0-5.11,7.17l-22.35-1.81a30.6,30.6,0,0,1,6.69-13.76,32.54,32.54,0,0,1,12.91-9,49.4,49.4,0,0,1,18.35-3.15A56.31,56.31,0,0,1,683.4,462a36.74,36.74,0,0,1,11.86,5.28,25.69,25.69,0,0,1,8.19,9.16,27.78,27.78,0,0,1,3,13.36v58.77H683.54V536.48h-.68a24.34,24.34,0,0,1-5.62,7.18,25.4,25.4,0,0,1-8.45,4.82A34.5,34.5,0,0,1,657.39,550.21Zm6.92-16.68a20.12,20.12,0,0,0,9.42-2.13,16.51,16.51,0,0,0,6.41-5.76,14.91,14.91,0,0,0,2.32-8.22v-9.25a12,12,0,0,1-3.09,1.33,44.13,44.13,0,0,1-4.39,1.08c-1.63.32-3.26.61-4.88.85l-4.43.66a29.52,29.52,0,0,0-7.43,2,12.08,12.08,0,0,0-4.94,3.66,9.11,9.11,0,0,0-1.75,5.7,8.68,8.68,0,0,0,3.6,7.52A15.33,15.33,0,0,0,664.31,533.53Z"/><path d="M797.68,429.43l7.38,15.77a24.38,24.38,0,0,1-8.17,4.51,46.11,46.11,0,0,1-10.69,1.9q-6.23.45-15.12.62-10.11.12-16.45,3.24a20.77,20.77,0,0,0-9.65,9.78q-3.29,6.67-4.31,17.39h.85a29.26,29.26,0,0,1,11-12.37q7.13-4.36,17.62-4.36a38,38,0,0,1,19.49,4.87,33.42,33.42,0,0,1,13,14q4.65,9.13,4.65,21.9,0,13.27-5.19,23.06a36.78,36.78,0,0,1-14.72,15.14q-9.54,5.37-22.7,5.36T742,544.71a36.72,36.72,0,0,1-14.75-16.4Q722,517.48,722,501.65V494.5q0-31.49,12.26-46.69t36-15.43q6.47-.12,11.69-.06a59.94,59.94,0,0,0,9.16-.51A15.09,15.09,0,0,0,797.68,429.43ZM764.84,531.54a15.88,15.88,0,0,0,9.56-2.89,18.54,18.54,0,0,0,6.18-8.28,34.4,34.4,0,0,0,2.18-12.88,32.65,32.65,0,0,0-2.18-12.62,17.46,17.46,0,0,0-6.21-7.92,16.86,16.86,0,0,0-9.65-2.72,17.92,17.92,0,0,0-7.54,1.53,15.29,15.29,0,0,0-5.7,4.51,21.65,21.65,0,0,0-3.64,7.32,35.13,35.13,0,0,0-1.27,9.9q0,11.18,4.85,17.61T764.84,531.54Z"/><path d="M848.23,550.21a36.17,36.17,0,0,1-14.87-2.92,23.45,23.45,0,0,1-10.29-8.68q-3.78-5.76-3.78-14.39A25.35,25.35,0,0,1,822,512a21.6,21.6,0,0,1,7.26-7.94,35.15,35.15,0,0,1,10.47-4.54A79.37,79.37,0,0,1,852,497.39q7.61-.79,12.25-1.5a17,17,0,0,0,6.75-2.13,4.73,4.73,0,0,0,2.1-4.2v-.34q0-5.39-3.37-8.34t-9.56-2.95q-6.53,0-10.38,2.87a13.4,13.4,0,0,0-5.11,7.17l-22.35-1.81a30.5,30.5,0,0,1,6.69-13.76,32.54,32.54,0,0,1,12.91-9,49.4,49.4,0,0,1,18.35-3.15,56.37,56.37,0,0,1,13.93,1.7,36.84,36.84,0,0,1,11.86,5.28,25.69,25.69,0,0,1,8.19,9.16,27.78,27.78,0,0,1,3,13.36v58.77H874.38V536.48h-.68a24.34,24.34,0,0,1-5.62,7.18,25.4,25.4,0,0,1-8.45,4.82A34.5,34.5,0,0,1,848.23,550.21Zm6.92-16.68a20.12,20.12,0,0,0,9.42-2.13,16.51,16.51,0,0,0,6.41-5.76,14.91,14.91,0,0,0,2.32-8.22v-9.25a12,12,0,0,1-3.09,1.33,43.68,43.68,0,0,1-4.4,1.08c-1.62.32-3.25.61-4.87.85l-4.43.66a29.52,29.52,0,0,0-7.43,2,12,12,0,0,0-4.94,3.66,9.11,9.11,0,0,0-1.76,5.7A8.66,8.66,0,0,0,846,531,15.33,15.33,0,0,0,855.15,533.53Z"/><circle class="cls-1" cx="379.11" cy="331.72" r="42.96"/><circle class="cls-2" cx="379.02" cy="331.65" r="42.96"/><circle class="cls-3" cx="378.75" cy="331.42" r="42.96"/><circle class="cls-4" cx="378.31" cy="331.06" r="42.96"/><circle class="cls-5" cx="377.72" cy="330.56" r="42.96"/><circle class="cls-6" cx="376.98" cy="329.93" r="42.96"/><circle class="cls-7" cx="376.11" cy="329.18" r="42.96"/><circle class="cls-8" cx="375.12" cy="328.32" r="42.96"/><circle class="cls-9" cx="374.02" cy="327.35" r="42.96"/><circle class="cls-10" cx="372.82" cy="326.29" r="42.96"/><circle class="cls-11" cx="371.53" cy="325.13" r="42.96"/><circle class="cls-12" cx="370.16" cy="323.88" r="42.96"/><circle class="cls-13" cx="368.73" cy="322.56" r="42.96"/><circle class="cls-14" cx="367.23" cy="321.16" r="42.96"/><circle class="cls-15" cx="365.7" cy="319.7" r="42.96"/><circle class="cls-16" cx="364.13" cy="318.18" r="42.96"/><circle class="cls-17" cx="362.54" cy="316.62" r="42.96"/><circle class="cls-18" cx="360.94" cy="315" r="42.96"/><circle class="cls-19" cx="359.33" cy="313.35" r="42.96"/><circle class="cls-20" cx="357.74" cy="311.67" r="42.96"/><circle class="cls-21" cx="356.17" cy="309.97" r="42.96"/><circle class="cls-22" cx="354.63" cy="308.25" r="42.96"/><circle class="cls-23" cx="353.14" cy="306.52" r="42.96"/><circle class="cls-24" cx="351.7" cy="304.79" r="42.96"/><circle class="cls-25" cx="350.33" cy="303.06" r="42.96"/><circle class="cls-26" cx="349.03" cy="301.34" r="42.96"/><circle class="cls-27" cx="347.83" cy="299.64" r="42.96"/><circle class="cls-28" cx="346.72" cy="297.97" r="42.96"/><circle class="cls-29" cx="345.72" cy="296.33" r="42.96"/><circle class="cls-30" cx="344.85" cy="294.73" r="42.96"/><circle class="cls-31" cx="344.1" cy="293.18" r="42.96"/><circle class="cls-32" cx="343.5" cy="291.67" r="42.96"/><circle class="cls-33" cx="343.06" cy="290.23" r="42.96"/><circle class="cls-34" cx="342.78" cy="288.86" r="42.96"/><circle class="cls-35" cx="342.68" cy="287.56" r="42.96"/><circle class="cls-36" cx="342.76" cy="286.34" r="42.96"/><circle class="cls-37" cx="343.05" cy="285.21" r="42.96"/><circle class="cls-38" cx="343.54" cy="284.17" r="42.96"/><circle class="cls-39" cx="344.26" cy="283.23" r="42.96"/><circle class="cls-40" cx="345.2" cy="282.41" r="42.96"/><circle class="cls-41" cx="346.39" cy="281.69" r="42.96"/><circle class="cls-42" cx="347.84" cy="281.1" r="42.96"/><circle class="cls-43" cx="349.55" cy="280.64" r="42.96"/><circle class="cls-44" cx="351.54" cy="280.32" r="42.96"/><circle class="cls-45" cx="353.81" cy="280.14" r="42.96"/><circle class="cls-46" cx="356.38" cy="280.11" r="42.96"/><circle class="cls-47" cx="359.27" cy="280.24" r="42.96"/><circle class="cls-48" cx="362.47" cy="280.53" r="42.96"/><circle class="cls-49" cx="366.01" cy="280.99" r="42.96"/><circle class="cls-50" cx="369.88" cy="281.63" r="42.96"/><circle class="cls-51" cx="374.12" cy="282.46" r="42.96"/><circle class="cls-52" cx="378.71" cy="283.47" r="42.96"/><circle class="cls-53" cx="383.68" cy="284.69" r="42.96"/><circle class="cls-54" cx="389.04" cy="286.11" r="42.96"/><circle class="cls-55" cx="394.8" cy="287.74" r="42.96"/><circle class="cls-56" cx="400.97" cy="289.6" r="42.96"/><circle class="cls-57" cx="407.56" cy="291.68" r="42.96"/><circle class="cls-58" cx="414.58" cy="293.99" r="42.96"/><circle class="cls-59" cx="421.41" cy="296.18" r="43.27"/><circle class="cls-60" cx="427.45" cy="297.88" r="43.58"/><circle class="cls-61" cx="432.73" cy="299.12" r="43.89"/><circle class="cls-62" cx="437.29" cy="299.93" r="44.2"/><circle class="cls-63" cx="441.15" cy="300.3" r="44.52"/><circle class="cls-64" cx="444.34" cy="300.27" r="44.83"/><circle class="cls-65" cx="446.9" cy="299.86" r="45.14"/><circle class="cls-66" cx="448.86" cy="299.07" r="45.45"/><circle class="cls-67" cx="450.25" cy="297.94" r="45.76"/><circle class="cls-68" cx="451.1" cy="296.48" r="46.08"/><circle class="cls-69" cx="451.45" cy="294.7" r="46.39"/><circle class="cls-70" cx="451.32" cy="292.64" r="46.7"/><circle class="cls-71" cx="450.75" cy="290.3" r="47.01"/><circle class="cls-72" cx="449.76" cy="287.7" r="47.32"/><circle class="cls-73" cx="448.4" cy="284.87" r="47.64"/><circle class="cls-74" cx="446.68" cy="281.81" r="47.95"/><circle class="cls-75" cx="444.65" cy="278.56" r="48.26"/><circle class="cls-76" cx="442.34" cy="275.13" r="48.57"/><circle class="cls-77" cx="439.77" cy="271.54" r="48.88"/><circle class="cls-78" cx="436.98" cy="267.81" r="49.2"/><circle class="cls-79" cx="434" cy="263.95" r="49.51"/><circle class="cls-80" cx="430.86" cy="259.99" r="49.82"/><circle class="cls-81" cx="427.6" cy="255.93" r="50.13"/><circle class="cls-82" cx="424.23" cy="251.82" r="50.44"/><circle class="cls-83" cx="420.81" cy="247.65" r="50.76"/><circle class="cls-84" cx="417.35" cy="243.45" r="51.07"/><circle class="cls-85" cx="413.89" cy="239.25" r="51.38"/><circle class="cls-86" cx="410.46" cy="235.04" r="51.69"/><circle class="cls-87" cx="407.1" cy="230.87" r="52"/><circle class="cls-88" cx="403.83" cy="226.74" r="52.32"/><circle class="cls-89" cx="400.68" cy="222.67" r="52.63"/><circle class="cls-90" cx="397.7" cy="218.69" r="52.94"/><circle class="cls-91" cx="394.9" cy="214.81" r="53.25"/><circle class="cls-92" cx="392.32" cy="211.05" r="53.56"/><circle class="cls-93" cx="390" cy="207.42" r="53.88"/><circle class="cls-94" cx="387.95" cy="203.96" r="54.19"/><circle class="cls-95" cx="386.23" cy="200.67" r="54.5"/><circle class="cls-96" cx="384.85" cy="197.57" r="54.81"/><circle class="cls-97" cx="383.85" cy="194.69" r="55.12"/><circle class="cls-98" cx="383.26" cy="192.04" r="55.44"/><circle class="cls-99" cx="383.11" cy="189.65" r="55.75"/><circle class="cls-100" cx="383.44" cy="187.52" r="56.06"/><circle class="cls-101" cx="384.27" cy="185.68" r="56.37"/><circle class="cls-102" cx="385.64" cy="184.15" r="56.68"/><circle class="cls-103" cx="387.57" cy="182.95" r="57"/><circle class="cls-104" cx="390.11" cy="182.09" r="57.31"/><circle class="cls-105" cx="393.28" cy="181.59" r="57.62"/><circle class="cls-106" cx="397.11" cy="181.48" r="57.93"/><circle class="cls-107" cx="401.63" cy="181.77" r="58.24"/><circle class="cls-108" cx="406.88" cy="182.48" r="58.56"/><circle class="cls-109" cx="412.9" cy="183.63" r="58.87"/><circle class="cls-110" cx="419.7" cy="185.23" r="59.18"/><circle class="cls-111" cx="427.32" cy="187.32" r="59.49"/><circle class="cls-112" cx="435.79" cy="189.89" r="59.8"/><circle class="cls-113" cx="445.15" cy="192.99" r="60.12"/><circle class="cls-114" cx="455.43" cy="196.61" r="60.43"/><circle class="cls-115" cx="466.65" cy="200.79" r="60.74"/><circle class="cls-116" cx="477.93" cy="204.99" r="61.28"/><circle class="cls-117" cx="488.37" cy="208.69" r="61.82"/><circle class="cls-118" cx="498" cy="211.92" r="62.36"/><circle class="cls-119" cx="506.83" cy="214.67" r="62.9"/><circle class="cls-120" cx="514.89" cy="216.97" r="63.44"/><circle class="cls-121" cx="522.21" cy="218.83" r="63.98"/><circle class="cls-122" cx="528.81" cy="220.26" r="64.52"/><circle class="cls-123" cx="534.7" cy="221.29" r="65.06"/><circle class="cls-124" cx="539.92" cy="221.93" r="65.6"/><circle class="cls-125" cx="544.48" cy="222.19" r="66.14"/><circle class="cls-126" cx="548.41" cy="222.09" r="66.69"/><circle class="cls-127" cx="551.73" cy="221.65" r="67.23"/><circle class="cls-128" cx="554.47" cy="220.87" r="67.77"/><circle class="cls-129" cx="556.64" cy="219.78" r="68.31"/><circle class="cls-130" cx="558.28" cy="218.38" r="68.85"/><circle class="cls-131" cx="559.4" cy="216.7" r="69.39"/><circle class="cls-132" cx="560.02" cy="214.76" r="69.93"/><circle class="cls-133" cx="560.18" cy="212.56" r="70.47"/><circle class="cls-134" cx="559.89" cy="210.11" r="71.01"/><circle class="cls-135" cx="559.17" cy="207.45" r="71.55"/><circle class="cls-136" cx="558.05" cy="204.58" r="72.09"/><circle class="cls-137" cx="556.56" cy="201.51" r="72.63"/><circle class="cls-138" cx="554.71" cy="198.27" r="73.17"/><circle class="cls-139" cx="552.53" cy="194.86" r="73.71"/><circle class="cls-140" cx="550.03" cy="191.31" r="74.25"/><circle class="cls-141" cx="547.26" cy="187.62" r="74.79"/><circle class="cls-142" cx="544.22" cy="183.82" r="75.33"/><circle class="cls-143" cx="540.94" cy="179.92" r="75.87"/><circle class="cls-144" cx="537.44" cy="175.93" r="76.41"/><circle class="cls-145" cx="533.75" cy="171.87" r="76.95"/><circle class="cls-146" cx="529.89" cy="167.76" r="77.49"/><circle class="cls-147" cx="525.88" cy="163.6" r="78.04"/><circle class="cls-148" cx="521.74" cy="159.42" r="78.58"/><circle class="cls-149" cx="517.51" cy="155.23" r="79.12"/><circle class="cls-150" cx="513.19" cy="151.05" r="79.66"/><circle class="cls-151" cx="508.82" cy="146.89" r="80.2"/><circle class="cls-152" cx="504.42" cy="142.77" r="80.74"/><circle class="cls-153" cx="500.01" cy="138.69" r="81.28"/><circle class="cls-154" cx="495.61" cy="134.69" r="81.82"/><circle class="cls-155" cx="491.24" cy="130.77" r="82.36"/><circle class="cls-156" cx="486.94" cy="126.94" r="82.9"/><circle class="cls-157" cx="482.72" cy="123.23" r="83.44"/><circle class="cls-158" cx="478.6" cy="119.65" r="83.98"/><circle class="cls-159" cx="474.62" cy="116.21" r="84.52"/><circle class="cls-160" cx="470.78" cy="112.93" r="85.06"/><circle class="cls-161" cx="467.12" cy="109.82" r="85.6"/><circle class="cls-162" cx="463.66" cy="106.9" r="86.14"/><circle class="cls-163" cx="460.41" cy="104.19" r="86.68"/><circle class="cls-164" cx="457.41" cy="101.7" r="87.22"/><circle class="cls-165" cx="454.68" cy="99.45" r="87.76"/><circle class="cls-166" cx="452.24" cy="97.44" r="88.3"/><circle class="cls-167" cx="450.11" cy="95.71" r="88.85"/><circle class="cls-168" cx="448.31" cy="94.25" r="89.39"/><circle class="cls-169" cx="446.88" cy="93.09" r="89.93"/><circle class="cls-170" cx="445.82" cy="92.24" r="90.47"/><circle class="cls-171" cx="445.17" cy="91.73" r="91.01"/><circle class="cls-172" cx="444.95" cy="91.55" r="91.55"/></g></g></svg>