<svg xmlns="http://www.w3.org/2000/svg" viewBox="0 0 179 179"><defs><style>.cls-1{fill:#15191c;}.cls-2{fill:#fff;}</style></defs><g id="Layer_2" data-name="Layer 2"><g id="Layer_1-2" data-name="Layer 1"><circle class="cls-1" cx="89.5" cy="89.5" r="89.5"/><path class="cls-2" d="M15.58,88.28a1.2,1.2,0,0,1,1.2,1.2v0a1.2,1.2,0,0,1-1.2,1.2H8.2A1.19,1.19,0,0,1,7,89.53v-.06a1.19,1.19,0,0,1,1.2-1.19Z"/><rect class="cls-2" x="17.4" y="127.09" width="9.77" height="2.44" rx="1.2" transform="translate(-61.3 28.44) rotate(-30.08)"/><path class="cls-2" d="M19.7,47.79l6.39,3.69a1.19,1.19,0,0,1,.43,1.64v0a1.2,1.2,0,0,1-1.64.45l-6.39-3.68A1.21,1.21,0,0,1,18,48.27l0,0A1.19,1.19,0,0,1,19.7,47.79Z"/><path class="cls-2" d="M53.12,152.48h0a1.2,1.2,0,0,1,.45,1.64l-3.68,6.39a1.21,1.21,0,0,1-1.64.44l0,0a1.19,1.19,0,0,1-.44-1.63l3.69-6.39A1.19,1.19,0,0,1,53.12,152.48Z"/><path class="cls-2" d="M49.91,18.48l3.68,6.39a1.2,1.2,0,0,1-.45,1.64h0a1.19,1.19,0,0,1-1.64-.43L47.79,19.7a1.19,1.19,0,0,1,.44-1.63l0,0A1.21,1.21,0,0,1,49.91,18.48Z"/><path class="cls-2" d="M89.47,7h.06a1.19,1.19,0,0,1,1.19,1.2v7.38a1.2,1.2,0,0,1-1.2,1.2h0a1.2,1.2,0,0,1-1.2-1.2V8.2A1.19,1.19,0,0,1,89.47,7Z"/><path class="cls-2" d="M89.5,162.22h0a1.2,1.2,0,0,1,1.2,1.2v7.38a1.19,1.19,0,0,1-1.19,1.2h-.06a1.19,1.19,0,0,1-1.19-1.2v-7.38a1.2,1.2,0,0,1,1.2-1.2Z"/><path class="cls-2" d="M127.52,152.91l3.69,6.39a1.19,1.19,0,0,1-.44,1.63l0,0a1.21,1.21,0,0,1-1.64-.44l-3.68-6.39a1.2,1.2,0,0,1,.45-1.64h0A1.19,1.19,0,0,1,127.52,152.91Z"/><path class="cls-2" d="M130.73,18l0,0a1.19,1.19,0,0,1,.44,1.63l-3.69,6.39a1.19,1.19,0,0,1-1.64.43h0a1.2,1.2,0,0,1-.45-1.64l3.68-6.39A1.21,1.21,0,0,1,130.73,18Z"/><rect class="cls-2" x="155.49" y="123.43" width="2.44" height="9.77" rx="1.2" transform="translate(-32.75 199.89) rotate(-60.01)"/><path class="cls-2" d="M160.93,48.23l0,0a1.21,1.21,0,0,1-.44,1.64l-6.39,3.68a1.2,1.2,0,0,1-1.64-.45v0a1.19,1.19,0,0,1,.43-1.64l6.39-3.69A1.19,1.19,0,0,1,160.93,48.23Z"/><path class="cls-2" d="M172,89.47v.06a1.19,1.19,0,0,1-1.2,1.19h-7.38a1.2,1.2,0,0,1-1.2-1.2v0a1.2,1.2,0,0,1,1.2-1.2h7.38A1.19,1.19,0,0,1,172,89.47Z"/></g></g></svg>