<svg xmlns="http://www.w3.org/2000/svg" viewBox="0 0 45 45"><defs><style>.cls-1{fill:none;}.cls-2{fill:#ffb42a;}.cls-3{fill:#fff;}.cls-4{fill:#ff6355;}</style></defs><g id="Layer_2" data-name="Layer 2"><g id="Layer_1-2" data-name="Layer 1"><rect class="cls-1" width="45" height="45"/><path class="cls-2" d="M16.55,28.17C3.68,28.17.12,29.74,0,35.09.25,40.43,3.92,42,16.55,42h11.9C41.08,42,44.88,40.43,45,35.09c-.25-5.35-3.92-6.92-16.55-6.92Z"/><circle class="cls-3" cx="22.5" cy="21.82" r="16.82"/><path d="M8.44,21.59a.22.22,0,0,1,.22.22h0a.22.22,0,0,1-.22.23H7a.23.23,0,0,1-.23-.23h0A.22.22,0,0,1,7,21.59Z"/><rect x="8.78" y="28.97" width="1.86" height="0.46" rx="0.23" transform="translate(-13.33 8.8) rotate(-30.08)"/><rect x="9.48" y="13.51" width="0.46" height="1.86" rx="0.23" transform="translate(-7.64 15.63) rotate(-60.01)"/><rect x="14.19" y="34.37" width="1.86" height="0.46" rx="0.23" transform="translate(-22.41 30.34) rotate(-59.92)"/><rect x="14.88" y="8.1" width="0.46" height="1.86" rx="0.23" transform="translate(-2.49 8.77) rotate(-29.99)"/><path d="M22.49,6.12h0a.22.22,0,0,1,.22.23v1.4A.23.23,0,0,1,22.5,8h0a.23.23,0,0,1-.23-.23V6.35A.22.22,0,0,1,22.49,6.12Z"/><path d="M22.5,35.65h0a.23.23,0,0,1,.23.23v1.41a.23.23,0,0,1-.22.23h0a.23.23,0,0,1-.22-.23V35.88a.23.23,0,0,1,.23-.23Z"/><rect x="29.65" y="33.68" width="0.46" height="1.86" rx="0.23" transform="translate(-13.3 19.57) rotate(-29.99)"/><rect x="28.95" y="8.8" width="1.86" height="0.46" rx="0.23" transform="translate(7.11 30.38) rotate(-59.97)"/><rect x="35.06" y="28.27" width="0.46" height="1.86" rx="0.23" transform="translate(-7.64 45.17) rotate(-60.01)"/><rect x="34.36" y="14.2" width="1.86" height="0.46" rx="0.23" transform="translate(-2.49 19.6) rotate(-30.03)"/><path d="M38.2,21.81h0a.23.23,0,0,1-.23.23H36.56a.22.22,0,0,1-.22-.23h0a.22.22,0,0,1,.22-.22H38A.22.22,0,0,1,38.2,21.81Z"/><rect x="19.04" y="16.14" width="0.75" height="7.36" rx="0.32" transform="translate(-7.77 25.36) rotate(-57.12)"/><rect x="21.26" y="17.7" width="12.59" height="0.75" rx="0.32" transform="translate(-5.34 19.96) rotate(-36.53)"/><path class="cls-4" d="M23.87,21.82a1.37,1.37,0,1,0-1.62,1.34V34.92a.24.24,0,0,0,.24.24h0a.24.24,0,0,0,.24-.24V23.16A1.36,1.36,0,0,0,23.87,21.82Z"/><circle class="cls-3" cx="22.5" cy="21.82" r="0.75"/></g></g></svg>