<svg xmlns="http://www.w3.org/2000/svg" viewBox="0 0 45 45"><defs><style>.cls-1{fill:none;}.cls-2{fill:#383838;}.cls-3{fill:#6b6c6e;}.cls-4{fill:#7a7b7d;}.cls-5{fill:#89898b;}.cls-6{fill:#98989a;}.cls-7{fill:#a6a7a8;}.cls-8{fill:#b5b6b7;}.cls-9{fill:#c4c4c5;}.cls-10{fill:#d3d3d4;}.cls-11{fill:#e1e2e2;}.cls-12{fill:#f0f0f1;}.cls-13{fill:#fff;}.cls-14{fill:#666;}</style></defs><g id="Layer_2" data-name="Layer 2"><g id="Layer_1-2" data-name="Layer 1"><rect class="cls-1" width="45" height="45"/><path d="M16.55,28.17C3.68,28.17.12,29.74,0,35.09.25,40.43,3.92,42,16.55,42h11.9C41.08,42,44.88,40.43,45,35.09c-.25-5.35-3.92-6.92-16.55-6.92Z"/><path class="cls-2" d="M39.22,29.81h-12c-2.3,0-3.24.18-4.41.88L12.71,36.74c-1.92,1.15-1.62,1.49,1.49,1.49H30.47c3.1,0,4.27-.34,5.32-1.49l5.54-6C42,30,41.5,29.82,39.22,29.81Z"/><path class="cls-3" d="M38.33,27.56H25.83c-2.39,0-3.34.25-4.39,1.21l-9.18,7.7c-1.75,1.37-1.39,1.77,1.74,1.77H30.38c3.12,0,4.26-.4,5.22-1.77l5-7.68C41.22,27.82,40.71,27.56,38.33,27.56Z"/><path class="cls-4" d="M37.45,25.3h-13c-2.48,0-3.43.33-4.38,1.55l-8.25,9.34c-1.58,1.59-1.16,2,2,2H30.29c3.14,0,4.26-.46,5.13-2L40,26.86C40.47,25.64,39.92,25.3,37.45,25.3Z"/><path class="cls-5" d="M36.56,23.05H23.07c-2.58,0-3.52.4-4.36,1.88l-7.34,11c-1.4,1.81-.93,2.33,2.24,2.33H30.2c3.16,0,4.26-.52,5-2.33l4-11C39.72,23.45,39.13,23.05,36.56,23.05Z"/><path class="cls-6" d="M35.68,20.79h-14c-2.67,0-3.61.48-4.35,2.22L10.92,35.62c-1.23,2-.7,2.61,2.49,2.61h16.7c3.18,0,4.26-.58,4.93-2.6L38.56,23C39,21.27,38.34,20.79,35.68,20.79Z"/><path class="cls-7" d="M34.79,18.53H20.31c-2.76,0-3.7.55-4.34,2.55l-5.5,14.26c-1.05,2.25-.46,2.89,2.74,2.89H30c3.2,0,4.26-.63,4.83-2.88l3-14.26C38.22,19.09,37.55,18.54,34.79,18.53Z"/><path class="cls-8" d="M33.9,16.28h-15c-2.86,0-3.79.63-4.32,2.89L10,35.07c-.87,2.47-.23,3.16,3,3.16H29.93c3.22,0,4.26-.69,4.74-3.16l2.51-15.9C37.47,16.91,36.76,16.28,33.9,16.28Z"/><path class="cls-9" d="M33,14H17.55c-3,0-3.88.7-4.31,3.22L9.57,34.79c-.7,2.69,0,3.44,3.25,3.44h17c3.24,0,4.25-.75,4.64-3.44l2-17.55C36.72,14.72,36,14,33,14Z"/><path class="cls-10" d="M32.13,11.77h-16c-3,0-4,.77-4.29,3.56L9.13,34.51c-.53,2.91.23,3.72,3.49,3.72H29.75c3.26,0,4.25-.81,4.54-3.72L35.8,15.32C36,12.54,35.18,11.77,32.13,11.77Z"/><path class="cls-11" d="M31.25,9.51H14.79c-3.14,0-4.07.84-4.28,3.89L8.68,34.23c-.35,3.13.46,4,3.75,4H29.66c3.28,0,4.25-.87,4.44-4l1-20.83C35.23,10.36,34.39,9.51,31.25,9.51Z"/><path class="cls-12" d="M30.36,7.26H13.41c-3.23,0-4.16.92-4.26,4.22L8.23,34c-.18,3.35.69,4.28,4,4.28H29.57c3.3,0,4.25-.93,4.35-4.28l.5-22.47C34.48,8.17,33.59,7.26,30.36,7.26Z"/><path class="cls-13" d="M29.48,5H12C8.71,5,7.78,6,7.78,9.55V33.67c0,3.57.93,4.56,4.25,4.56H29.48c3.32,0,4.25-1,4.25-4.56V9.55C33.73,6,32.8,5,29.48,5Z"/><path class="cls-14" d="M30.83,9.87h-20A1.14,1.14,0,0,1,9.67,8.7h0a1.14,1.14,0,0,1,1.12-1.17h20A1.13,1.13,0,0,1,31.94,8.7h0A1.13,1.13,0,0,1,30.83,9.87Z"/><path class="cls-14" d="M23,13.87A1.14,1.14,0,0,1,21.89,15H10.79a1.18,1.18,0,0,1,0-2.35h11.1A1.14,1.14,0,0,1,23,13.87Z"/><path class="cls-14" d="M30.83,20.21h-20A1.15,1.15,0,0,1,9.67,19h0a1.14,1.14,0,0,1,1.12-1.17h20A1.13,1.13,0,0,1,31.94,19h0A1.14,1.14,0,0,1,30.83,20.21Z"/><path class="cls-14" d="M30.83,25.37h-20A1.14,1.14,0,0,1,9.67,24.2h0A1.15,1.15,0,0,1,10.79,23h20a1.14,1.14,0,0,1,1.11,1.18h0A1.13,1.13,0,0,1,30.83,25.37Z"/><path class="cls-14" d="M30.83,30.54h-20a1.15,1.15,0,0,1-1.12-1.18h0a1.14,1.14,0,0,1,1.12-1.17h20a1.13,1.13,0,0,1,1.11,1.17h0A1.14,1.14,0,0,1,30.83,30.54Z"/><path class="cls-14" d="M30.83,35.7h-20a1.14,1.14,0,0,1-1.12-1.17h0a1.15,1.15,0,0,1,1.12-1.18h20a1.14,1.14,0,0,1,1.11,1.18h0A1.13,1.13,0,0,1,30.83,35.7Z"/></g></g></svg>