<svg xmlns="http://www.w3.org/2000/svg" viewBox="0 0 45 45"><defs><style>.cls-1{fill:none;}.cls-2{fill:#fff;}</style></defs><g id="Layer_2" data-name="Layer 2"><g id="Layer_1-2" data-name="Layer 1"><rect class="cls-1" width="45" height="45"/><path class="cls-2" d="M16.55,28.8C3.68,28.8.12,30.29,0,35.4.25,40.51,3.92,42,16.55,42h11.9C41.08,42,44.88,40.51,45,35.4c-.25-5.11-3.92-6.6-16.55-6.6Z"/><ellipse class="cls-2" cx="16.11" cy="22.27" rx="2.92" ry="2.91"/><ellipse class="cls-2" cx="36.3" cy="22.75" rx="3.89" ry="3.88"/><ellipse class="cls-2" cx="25.11" cy="13.9" rx="4.38" ry="4.37"/><ellipse class="cls-2" cx="10.52" cy="12.2" rx="4.74" ry="4.73"/><path d="M34.35,32.34c-2.06,2.06-4,5-4-1v-4h4.5a1.53,1.53,0,0,0,.37-3H30.46V8.08A1.89,1.89,0,0,0,28.76,6H28.4a1.89,1.89,0,0,0-2.07,1.7v16.5h-.49a1.53,1.53,0,1,0-.36,3h.85v1c0,12,10.46,11.77,12.16,7C39.46,32.34,36.42,30.27,34.35,32.34Z"/><path d="M22,6.13a2.2,2.2,0,0,0-2.07,1.7c-1,5.95-4.13,25.48-5.84,25.48S9.18,13.9,8.21,7.83a1.77,1.77,0,0,0-1.83-1.7h0A2.05,2.05,0,0,0,4.31,8.2v.24c.86,7.4,3.9,30,9.86,30s9-22.56,9.85-30a2.16,2.16,0,0,0-1.83-2.31Z"/></g></g></svg>